<?xml version="1.0" encoding="UTF-8"?>
<svg width="67px" height="56px" viewBox="0 0 67 56" version="1.1" xmlns="http://www.w3.org/2000/svg" xmlns:xlink="http://www.w3.org/1999/xlink">
    <title>10</title>
    <g id="Timeline" stroke="none" stroke-width="1" fill="none" fill-rule="evenodd">
        <g id="iPhone-12-Pro-Max" transform="translate(-144.000000, -157.000000)" fill="#000000" fill-rule="nonzero">
            <path d="M162.144,211 L162.144,210.728 C160.376,209.98 158.88,207.464 158.88,205.424 L158.88,157.416 L158.608,157.416 C156.228,159.456 149.02,161.564 144.94,161.564 L144.94,161.836 C146.708,162.72 148.272,164.352 148.272,167.276 L148.272,205.424 C148.272,207.328 146.776,210.116 145.008,210.728 L145.008,211 L162.144,211 Z M193.56,212.088 C203.556,212.088 210.9,198.556 210.9,183.188 C210.9,167.752 203.828,157.416 193.56,157.416 C183.836,157.416 176.22,167.752 176.22,183.188 C176.22,198.692 183.836,212.088 193.56,212.088 Z M193.56,210.456 C190.354083,210.456 189.31076,201.923586 188.994854,192.333632 L188.970498,191.543189 C188.966702,191.411103 188.963035,191.278856 188.959493,191.146469 L188.939719,190.350611 C188.933609,190.084865 188.927972,189.818708 188.922778,189.552296 L188.908493,188.752447 C188.893308,187.818752 188.883185,186.883807 188.876858,185.954202 L188.872335,185.15886 C188.871726,185.026572 188.871188,184.894432 188.870715,184.762458 L188.868649,183.972768 L188.868649,183.972768 L188.868,183.188 C188.868,167.412 189.752,159.048 193.56,159.048 C197.028,159.048 198.252,167.276 198.252,183.188 C198.252,183.448667 198.251823,183.710307 198.251437,183.972768 L198.249624,184.762458 C198.249207,184.894432 198.24873,185.026572 198.24819,185.15886 L198.244148,185.954202 C198.241712,186.352604 198.238631,186.751987 198.234799,187.151832 L198.226102,187.951984 C198.222848,188.218805 198.219229,188.485677 198.215213,188.752447 L198.201944,189.552296 C198.008333,200.208778 197.13,210.456 193.56,210.456 Z" id="10"></path>
        </g>
    </g>
</svg>