<?xml version="1.0" encoding="UTF-8"?>
<svg width="65px" height="54px" viewBox="0 0 65 54" version="1.1" xmlns="http://www.w3.org/2000/svg" xmlns:xlink="http://www.w3.org/1999/xlink">
    <title>12</title>
    <g id="Timeline" stroke="none" stroke-width="1" fill="none" fill-rule="evenodd">
        <g id="iPhone-12-Pro-Max" transform="translate(-144.000000, -387.000000)" fill="#000000" fill-rule="nonzero">
            <path d="M162.144,441 L162.144,440.728 C160.376,439.98 158.88,437.464 158.88,435.424 L158.88,387.416 L158.608,387.416 C156.228,389.456 149.02,391.564 144.94,391.564 L144.94,391.836 C146.708,392.72 148.272,394.352 148.272,397.276 L148.272,435.424 C148.272,437.328 146.776,440.116 145.008,440.728 L145.008,441 L162.144,441 Z M207.432,441 L207.432,430.188 L207.16,430.188 C206.616,431.14 205.256,431.888 204.372,431.888 L188.324,431.888 L188.324,431.616 C193.56,427.74 208.996,413.188 208.996,400.88 C208.996,388.436 198.456,387.416 194.512,387.416 C186.216,387.416 182.136,392.176 178.736,399.52 L178.736,401.152 C180.64,398.432 183.632,395.984 188.188,395.984 C194.104,395.984 197.164,400.472 197.164,405.572 C197.164,415.636 183.224,433.656 177.308,440.728 L177.308,441 L207.432,441 Z" id="12"></path>
        </g>
    </g>
</svg>