<?xml version="1.0" encoding="UTF-8"?>
<svg width="36px" height="55px" viewBox="0 0 36 55" version="1.1" xmlns="http://www.w3.org/2000/svg" xmlns:xlink="http://www.w3.org/1999/xlink">
    <title>3</title>
    <g id="Timeline" stroke="none" stroke-width="1" fill="none" fill-rule="evenodd">
        <g id="iPhone-12-Pro-Max" transform="translate(-47.000000, -273.000000)" fill="#000000" fill-rule="nonzero">
            <path d="M65.072,327.088 C75.68,327.088 82.616,319.2 82.616,308.864 C82.616,297.168 75.408,292.272 68.88,289.96 L81.868,273.776 L81.868,273.504 L53.988,273.504 L53.988,284.792 L54.26,284.792 C54.736,283.84 56.436,283.296 57.66,283.296 L72.076,283.296 L59.632,297.984 L59.632,298.256 C64.46,299.004 70.784,300.84 70.784,310.7 C70.784,319.336 64.256,322.192 61.196,322.192 C56.096,322.192 50.316,317.092 47.868,313.012 L47.868,315.052 C51.812,321.648 55.212,327.088 65.072,327.088 Z" id="3"></path>
        </g>
    </g>
</svg>