<?xml version="1.0" encoding="UTF-8"?>
<svg width="35px" height="56px" viewBox="0 0 35 56" version="1.1" xmlns="http://www.w3.org/2000/svg" xmlns:xlink="http://www.w3.org/1999/xlink">
    <title>9</title>
    <g id="Timeline" stroke="none" stroke-width="1" fill="none" fill-rule="evenodd">
        <g id="iPhone-12-Pro-Max" transform="translate(-156.000000, -42.000000)" fill="#000000" fill-rule="nonzero">
            <path d="M165.884,97.088 C180.98,97.088 190.772,78.388 190.772,66.828 C190.772,56.764 186.76,42.416 173.432,42.416 C161.396,42.416 156.228,53.636 156.228,62.408 C156.228,75.8663333 164.285476,77.8710642 169.197928,77.9113691 L169.352,77.912 C171.188,77.912 175.676,77.708 177.852,74.512 L178.124,74.512 C177.24,84.508 171.256,94.572 165.884,96.68 L165.884,97.088 Z M173.432,74.24 C169.551613,74.24 168.896609,66.9993444 168.876489,61.0666783 L168.876489,60.1833432 C168.878839,59.0853782 168.888668,57.9274119 168.920727,56.75648 L168.940507,56.1167866 C169.147339,50.1395914 169.999437,44.048 173.432,44.048 C177.45287,44.048 178.105532,53.6903172 178.123606,60.4784166 L178.124,60.776 C178.124,66.828 177.036,74.24 173.432,74.24 Z" id="9"></path>
        </g>
    </g>
</svg>