<svg id="Artwork" xmlns="http://www.w3.org/2000/svg" xmlns:xlink="http://www.w3.org/1999/xlink" viewBox="0 0 250.3395 169.3086"><defs><clipPath id="clip-path"><rect x="-650.6116" y="314.9166" width="1452.3307" height="882.5669" style="fill:none"/></clipPath></defs><g style="clip-path:url(#clip-path)"><rect x="-1262.1569" y="138.7887" width="2098.684" height="6.1509" transform="translate(-425.6297 283.7283) rotate(-180)"/><rect x="-1262.1569" y="128.3713" width="2098.684" height="6.1509" transform="translate(-425.6297 262.8936) rotate(-180)"/><rect x="-1262.1569" y="20.1774" width="2097.4113" height="0.8904"/><rect x="-1262.1569" y="24.6497" width="2097.4113" height="1.1872"/><rect x="-1262.1569" y="29.1219" width="2097.4113" height="1.4841"/><rect x="-1262.1569" y="33.5942" width="2097.4113" height="1.7808"/><rect x="-1262.1569" y="38.0664" width="2097.4113" height="2.0776"/><rect x="-1262.1569" y="42.5386" width="2097.4113" height="2.3746"/><rect x="-1262.1569" y="47.0108" width="2097.4113" height="2.6713"/><polygon points="257.692 12.103 258.887 12.103 247.126 -10.796 245.93 -10.796 257.692 12.103"/><polygon points="247.599 12.103 248.795 12.103 237.033 -10.796 235.837 -10.796 247.599 12.103"/><polygon points="237.506 12.103 238.702 12.103 226.94 -10.796 225.744 -10.796 237.506 12.103"/><polygon points="227.413 12.103 228.609 12.103 216.847 -10.796 215.651 -10.796 227.413 12.103"/><polygon points="217.321 12.103 218.516 12.103 206.754 -10.796 205.559 -10.796 217.321 12.103"/><polygon points="207.228 12.103 208.423 12.103 196.661 -10.796 195.466 -10.796 207.228 12.103"/><polygon points="197.135 12.103 198.331 12.103 186.569 -10.796 185.373 -10.796 197.135 12.103"/><polygon points="187.042 12.103 188.238 12.103 176.476 -10.796 175.28 -10.796 187.042 12.103"/><polygon points="176.949 12.103 178.145 12.103 166.383 -10.796 165.187 -10.796 176.949 12.103"/><polygon points="166.856 12.103 168.052 12.103 156.29 -10.796 155.095 -10.796 166.856 12.103"/><polygon points="156.764 12.103 157.959 12.103 146.197 -10.796 145.002 -10.796 156.764 12.103"/><polygon points="146.671 12.103 147.866 12.103 136.104 -10.796 134.909 -10.796 146.671 12.103"/><polygon points="136.578 12.103 137.774 12.103 126.012 -10.796 124.816 -10.796 136.578 12.103"/><polygon points="126.485 12.103 127.681 12.103 115.919 -10.796 114.723 -10.796 126.485 12.103"/><polygon points="116.392 12.103 117.588 12.103 105.826 -10.796 104.63 -10.796 116.392 12.103"/><polygon points="106.299 12.103 107.495 12.103 95.733 -10.796 94.538 -10.796 106.299 12.103"/><polygon points="96.207 12.103 97.402 12.103 85.64 -10.796 84.445 -10.796 96.207 12.103"/><polygon points="86.114 12.103 87.309 12.103 75.548 -10.796 74.352 -10.796 86.114 12.103"/><polygon points="76.021 12.103 77.217 12.103 65.455 -10.796 64.259 -10.796 76.021 12.103"/><polygon points="65.928 12.103 67.124 12.103 55.362 -10.796 54.166 -10.796 65.928 12.103"/><polygon points="55.835 12.103 57.031 12.103 45.269 -10.796 44.073 -10.796 55.835 12.103"/><polygon points="45.743 12.103 46.938 12.103 35.176 -10.796 33.981 -10.796 45.743 12.103"/><polygon points="35.65 12.103 36.845 12.103 25.083 -10.796 23.888 -10.796 35.65 12.103"/><polygon points="25.557 12.103 26.753 12.103 14.991 -10.796 13.795 -10.796 25.557 12.103"/><polygon points="15.464 12.103 16.66 12.103 4.898 -10.796 3.702 -10.796 15.464 12.103"/><polygon points="5.371 12.103 6.567 12.103 -5.195 -10.796 -6.391 -10.796 5.371 12.103"/><polygon points="-7.843 120.112 -9.039 120.112 5.371 92.086 6.567 92.086 -7.843 120.112"/><polygon points="2.25 120.112 1.054 120.112 15.464 92.086 16.66 92.086 2.25 120.112"/><polygon points="12.343 120.112 11.147 120.112 25.557 92.086 26.753 92.086 12.343 120.112"/><polygon points="22.436 120.112 21.24 120.112 35.65 92.086 36.845 92.086 22.436 120.112"/><polygon points="32.528 120.112 31.333 120.112 45.743 92.086 46.938 92.086 32.528 120.112"/><polygon points="42.621 120.112 41.426 120.112 55.835 92.086 57.031 92.086 42.621 120.112"/><polygon points="52.714 120.112 51.518 120.112 65.928 92.086 67.124 92.086 52.714 120.112"/><polygon points="62.807 120.112 61.611 120.112 76.021 92.086 77.217 92.086 62.807 120.112"/><polygon points="72.9 120.112 71.704 120.112 86.114 92.086 87.309 92.086 72.9 120.112"/><polygon points="82.992 120.112 81.797 120.112 96.207 92.086 97.402 92.086 82.992 120.112"/><polygon points="93.085 120.112 91.89 120.112 106.299 92.086 107.495 92.086 93.085 120.112"/><polygon points="103.178 120.112 101.983 120.112 116.392 92.086 117.588 92.086 103.178 120.112"/><polygon points="113.271 120.112 112.075 120.112 126.485 92.086 127.681 92.086 113.271 120.112"/><polygon points="123.364 120.112 122.168 120.112 136.578 92.086 137.774 92.086 123.364 120.112"/><polygon points="133.457 120.112 132.261 120.112 146.671 92.086 147.866 92.086 133.457 120.112"/><polygon points="143.549 120.112 142.354 120.112 156.764 92.086 157.959 92.086 143.549 120.112"/><polygon points="153.642 120.112 152.447 120.112 166.856 92.086 168.052 92.086 153.642 120.112"/><polygon points="163.735 120.112 162.539 120.112 176.949 92.086 178.145 92.086 163.735 120.112"/><polygon points="173.828 120.112 172.632 120.112 187.042 92.086 188.238 92.086 173.828 120.112"/><polygon points="183.921 120.112 182.725 120.112 197.135 92.086 198.331 92.086 183.921 120.112"/><polygon points="194.014 120.112 192.818 120.112 207.228 92.086 208.423 92.086 194.014 120.112"/><polygon points="204.106 120.112 202.911 120.112 217.321 92.086 218.516 92.086 204.106 120.112"/><polygon points="214.199 120.112 213.004 120.112 227.413 92.087 228.609 92.087 214.199 120.112"/><polygon points="224.292 120.112 223.096 120.112 237.506 92.087 238.702 92.087 224.292 120.112"/><polygon points="234.385 120.112 233.189 120.112 247.599 92.087 248.795 92.087 234.385 120.112"/><polygon points="244.478 120.112 243.282 120.112 257.692 92.087 258.887 92.087 244.478 120.112"/><line x1="835.2544" y1="57.3086" x2="-1262.4719" y2="57.3085" style="fill:none;stroke:#000;stroke-miterlimit:10;stroke-width:2.67129588584989px;stroke-dasharray:0.8904319405555725,3.3391196727752686"/><line x1="835.2544" y1="84.2485" x2="-1262.4719" y2="84.2483" style="fill:none;stroke:#000;stroke-miterlimit:10;stroke-width:2.67129588584989px;stroke-dasharray:0.8904319405555725,3.3391196727752686"/><path d="M75.782,173.039l10.9728-4.8019c-.6981-.66-1.4122-1.3042-2.1309-1.9182l-10.7054,5.3658C74.546,172.1147,75.1739,172.5717,75.782,173.039Z"/><path d="M63.6679,166.4758l8.9478-7.96c-.8583-.4126-1.7429-.8-2.6269-1.1678l-8.5,8.421C62.2205,165.9853,62.9541,166.2214,63.6679,166.4758Z"/><path d="M71.9868,170.4311l10.4-5.9206c-.754-.58-1.5333-1.15-2.3133-1.6889l-10.0875,6.4575C70.6563,169.642,71.3294,170.03,71.9868,170.4311Z"/><path d="M67.9334,168.2326l9.7308-6.973c-.81-.4983-1.6459-.9817-2.49-1.4434l-9.347,7.4824C66.5388,167.5912,67.2453,167.9065,67.9334,168.2326Z"/><path d="M54.7412,164.3516l7.064-9.6491c-.9283-.2233-1.8746-.4188-2.7977-.5909l-6.5691,10.0051C53.1968,164.1754,53.9708,164.2541,54.7412,164.3516Z"/><path d="M59.2624,165.1774l8.0453-8.8523c-.8953-.3162-1.8143-.6154-2.7251-.8856l-7.5746,9.2666C57.7612,164.84,58.52,165.0017,59.2624,165.1774Z"/><path d="M50.14,164.0025l6.0377-10.3348c-.942-.1214-1.9-.2222-2.85-.2982l-5.4957,10.6357C48.597,163.984,49.3709,163.98,50.14,164.0025Z"/><path d="M45.5307,164.1273,50.47,153.22c-.9551-.0266-1.9181-.0283-2.8608-.0036l-4.3747,11.1523C43.99,164.2694,44.7611,164.1876,45.5307,164.1273Z"/><path d="M20.4547,174.5518l-2.4118-11.7267c-.7878.54-1.5682,1.106-2.32,1.6869l3.028,11.5773C19.3038,175.5649,19.8783,175.049,20.4547,174.5518Z"/><path d="M17.1174,177.7266l-3.62-11.4148c-.7206.6154-1.4364,1.2579-2.1364,1.9168l4.2178,11.2088C16.0766,178.8506,16.5943,178.2746,17.1174,177.7266Z"/><path d="M24.1085,171.7388l-1.1918-11.9046c-.8319.4552-1.6637.9322-2.4728,1.4309L22.25,173.0976C22.8545,172.6321,23.4807,172.1737,24.1085,171.7388Z"/><path d="M39.055,154.1107c-.9392.1746-1.8838.3733-2.8031.5967l-1.9456,11.8118c.7162-.2537,1.45-.4957,2.1863-.7139Z"/><path d="M40.9694,164.7272,44.74,153.3633c-.9491.0749-1.9085.1757-2.8507.2983l-3.1717,11.5495C39.4582,165.0318,40.2184,164.8694,40.9694,164.7272Z"/><path d="M28.0253,169.3287l.0639-11.9654c-.8759.3628-1.758.7556-2.6187,1.1637l.5607,11.9569C26.6813,170.0816,27.3547,169.6961,28.0253,169.3287Z"/><path d="M33.4837,155.4484c-.91.27-1.8224.57-2.72.8865l-.6943,11.9481c.6894-.33,1.3919-.6442,2.0955-.937Z"/><path d="M190.003,173.039l10.9728-4.8019c-.6981-.66-1.4121-1.3042-2.1309-1.9182L188.14,171.6848C188.7671,172.1147,189.395,172.5717,190.003,173.039Z"/><path d="M177.889,166.4758l8.9478-7.96c-.8583-.4127-1.743-.8-2.6269-1.1679l-8.5,8.421C176.4416,165.9853,177.1751,166.2215,177.889,166.4758Z"/><path d="M186.2078,170.4311l10.4-5.9206c-.754-.58-1.5333-1.15-2.3133-1.6889l-10.0875,6.4575C184.8773,169.642,185.55,170.03,186.2078,170.4311Z"/><path d="M182.1544,168.2326l9.7308-6.973c-.81-.4983-1.6458-.9817-2.49-1.4434l-9.347,7.4825C180.76,167.5912,181.4664,167.9065,182.1544,168.2326Z"/><path d="M168.9622,164.3516l7.064-9.6491c-.9282-.2232-1.8745-.4188-2.7976-.5909L166.66,164.1167C167.4179,164.1754,168.1919,164.2541,168.9622,164.3516Z"/><path d="M173.4834,165.1774l8.0454-8.8523c-.8954-.3162-1.8143-.6154-2.7251-.8856l-7.5746,9.2667C171.9822,164.84,172.7412,165.0018,173.4834,165.1774Z"/><path d="M164.361,164.0026l6.0377-10.3349c-.942-.1214-1.9-.2222-2.85-.2982l-5.4957,10.6357C162.8181,163.984,163.5919,163.98,164.361,164.0026Z"/><path d="M159.7517,164.1273l4.94-10.9077c-.9551-.0266-1.918-.0283-2.8607-.0036l-4.3747,11.1523C158.2107,164.2694,158.9821,164.1876,159.7517,164.1273Z"/><path d="M134.6757,174.5518l-2.4118-11.7267c-.7878.54-1.5682,1.106-2.32,1.6869l3.0279,11.5773C133.5249,175.5649,134.0994,175.049,134.6757,174.5518Z"/><path d="M131.3385,177.7266l-3.62-11.4148c-.7205.6154-1.4363,1.2579-2.1363,1.9168L129.8,179.4374C130.2977,178.8506,130.8153,178.2747,131.3385,177.7266Z"/><path d="M138.33,171.7388l-1.1917-11.9046c-.832.4552-1.6638.9322-2.4728,1.4309l1.8055,11.8325C137.0755,172.6321,137.7018,172.1737,138.33,171.7388Z"/><path d="M153.2761,154.1107c-.9393.1746-1.8839.3733-2.8032.5967l-1.9455,11.8118c.7162-.2537,1.45-.4957,2.1863-.7139Z"/><path d="M155.1905,164.7272l3.7707-11.3639c-.9491.0749-1.9085.1757-2.8506.2983l-3.1717,11.5495C153.6792,165.0318,154.4394,164.8694,155.1905,164.7272Z"/><path d="M142.2464,169.3287l.0639-11.9654c-.876.3628-1.758.7556-2.6187,1.1638l.5607,11.9568C140.9023,170.0816,141.5758,169.6961,142.2464,169.3287Z"/><path d="M147.7048,155.4484c-.91.27-1.8224.57-2.72.8865l-.6943,11.9482c.6894-.33,1.3919-.6443,2.0955-.9371Z"/><path d="M248.8968,174.5518l-2.4118-11.7267c-.7878.54-1.5682,1.106-2.3205,1.6869l3.028,11.5773C247.7459,175.5649,248.32,175.049,248.8968,174.5518Z"/><path d="M245.56,177.7266l-3.62-11.4148c-.7206.6154-1.4364,1.2579-2.1364,1.9168l4.2179,11.2088C244.5187,178.8506,245.0364,178.2747,245.56,177.7266Z"/><path d="M252.5506,171.7388l-1.1918-11.9046c-.8319.4552-1.6637.9322-2.4728,1.4309l1.8056,11.8326C251.2966,172.6321,251.9229,172.1737,252.5506,171.7388Z"/><path d="M19.2253,79.073l-3.7092,0c-.4455-.3222-.7443-.7958-.8213-1.9365-.0646-.946-.131-2.8287-.2-3.7743-.1045-1.4492-.3089-2.9179-2.206-2.9179h-.4425v6.6263a2.18,2.18,0,0,0,1.2135,1.924v.0785l-6.07,0v-.0784a2.1842,2.1842,0,0,0,1.2144-1.9241V64.4873A2.1807,2.1807,0,0,0,6.9894,62.565v-.0812l7,0c2.6011,0,3.8241,1.5512,3.8241,3.8433a4.1438,4.1438,0,0,1-3.091,3.8239v.04c1.6378.1024,3.0867,1.0692,3.2755,4.0066.046.7285.1239,1.7006.174,2.4285a3.8062,3.8062,0,0,0,1.0534,2.3682ZM11.8458,62.8912v7.1441h.6534c1.185,0,1.6719-1.5324,1.6719-3.8585,0-1.316-.0747-3.2857-1.6719-3.2857Z"/><path d="M54.3242,79.073l-3.7091,0c-.4455-.3222-.7444-.7958-.8213-1.9365-.0646-.946-.131-2.8287-.2-3.7743-.1046-1.4492-.309-2.9179-2.2061-2.9179h-.4424v6.6263a2.18,2.18,0,0,0,1.2135,1.924v.0785l-6.07,0v-.0784a2.1842,2.1842,0,0,0,1.2144-1.9241V64.4873a2.1807,2.1807,0,0,0-1.2144-1.9223v-.0812l7,0c2.6011,0,3.8241,1.5512,3.8241,3.8433a4.1438,4.1438,0,0,1-3.091,3.8239v.04c1.6377.1024,3.0866,1.0692,3.2755,4.0066.046.7285.1239,1.7006.1739,2.4285a3.8073,3.8073,0,0,0,1.0534,2.3682ZM46.9448,62.8912v7.1441h.6534c1.185,0,1.6719-1.5324,1.6719-3.8585,0-1.316-.0747-3.2857-1.6719-3.2856Z"/><path d="M89.4232,79.073l-3.7091,0c-.4455-.3222-.7444-.7958-.8214-1.9365-.0645-.946-.1309-2.8287-.2-3.7743-.1046-1.4492-.309-2.9179-2.2061-2.9179h-.4425v6.6263a2.18,2.18,0,0,0,1.2136,1.924v.0785l-6.07,0v-.0784a2.1841,2.1841,0,0,0,1.2145-1.9241V64.4873a2.1807,2.1807,0,0,0-1.2144-1.9223v-.0812l7,0c2.6011,0,3.8241,1.5512,3.8241,3.8433a4.1438,4.1438,0,0,1-3.091,3.8239v.04c1.6377.1024,3.0866,1.0692,3.2755,4.0066.046.7285.1239,1.7006.1739,2.4285a3.8067,3.8067,0,0,0,1.0534,2.3682ZM82.0437,62.8912v7.1441h.6534c1.1851,0,1.6719-1.5324,1.6719-3.8585,0-1.316-.0746-3.2857-1.6719-3.2856Z"/><path d="M124.5222,79.073l-3.7091,0c-.4455-.3222-.7444-.7958-.8214-1.9365-.0645-.946-.1309-2.8287-.2-3.7743-.1046-1.4492-.309-2.9179-2.2061-2.9179h-.4425v6.6263a2.18,2.18,0,0,0,1.2136,1.924v.0785l-6.07,0v-.0784a2.1842,2.1842,0,0,0,1.2145-1.9241V64.4873a2.1806,2.1806,0,0,0-1.2145-1.9223v-.0812l7,0c2.6011,0,3.8241,1.5512,3.8241,3.8433a4.1438,4.1438,0,0,1-3.0911,3.8239v.04c1.6378.1024,3.0867,1.0692,3.2756,4.0066.0459.7285.1239,1.7006.1739,2.4285a3.8067,3.8067,0,0,0,1.0534,2.3682Zm-7.3795-16.1818v7.1441h.6534c1.1851,0,1.6719-1.5324,1.6719-3.8585,0-1.316-.0746-3.2857-1.6719-3.2856Z"/><path d="M159.6212,79.073l-3.7091,0c-.4455-.3222-.7444-.7957-.8214-1.9365-.0645-.946-.1309-2.8287-.2005-3.7743-.1045-1.4492-.3089-2.9179-2.206-2.9179h-.4425v6.6263a2.18,2.18,0,0,0,1.2136,1.924v.0785l-6.07,0v-.0784A2.1842,2.1842,0,0,0,148.6,77.0708V64.4873a2.1807,2.1807,0,0,0-1.2144-1.9223v-.0812l7,0c2.6011,0,3.824,1.5511,3.824,3.8432a4.1438,4.1438,0,0,1-3.091,3.8239v.04c1.6378.1024,3.0867,1.0692,3.2756,4.0066.0459.7285.1239,1.7006.1739,2.4285a3.8064,3.8064,0,0,0,1.0534,2.3682Zm-7.3795-16.1818v7.1441h.6534c1.1851,0,1.6719-1.5324,1.6719-3.8585,0-1.3159-.0747-3.2857-1.6719-3.2856Z"/><path d="M194.72,79.073l-3.7091,0c-.4456-.3222-.7444-.7957-.8214-1.9365-.0645-.946-.1309-2.8287-.2-3.7743-.1045-1.4492-.3089-2.9179-2.206-2.9179h-.4425v6.6263a2.18,2.18,0,0,0,1.2135,1.924v.0785l-6.07,0v-.0784a2.1842,2.1842,0,0,0,1.2144-1.9241V64.4873a2.1807,2.1807,0,0,0-1.2144-1.9223v-.0812l7,0c2.6012,0,3.8241,1.5511,3.8241,3.8432a4.1438,4.1438,0,0,1-3.091,3.8239v.04c1.6378.1024,3.0867,1.0692,3.2755,4.0066.046.7285.124,1.7006.174,2.4285a3.8059,3.8059,0,0,0,1.0534,2.3682Zm-7.38-16.1818v7.1441h.6534c1.185,0,1.6719-1.5324,1.6719-3.8585,0-1.3159-.0747-3.2857-1.6719-3.2856Z"/><path d="M229.8191,79.073l-3.7091,0c-.4455-.3222-.7443-.7957-.8213-1.9365-.0646-.946-.131-2.8287-.2005-3.7743-.1045-1.4492-.3089-2.9179-2.206-2.9179l-.4425,0v6.6262a2.18,2.18,0,0,0,1.2135,1.924v.0785l-6.07,0v-.0785a2.1842,2.1842,0,0,0,1.2144-1.9241V64.4873a2.1807,2.1807,0,0,0-1.2144-1.9223v-.0812l7,0c2.6011,0,3.8241,1.5511,3.8241,3.8432a4.1438,4.1438,0,0,1-3.091,3.8239v.04c1.6378.1024,3.0867,1.0692,3.2755,4.0066.046.7285.1239,1.7006.174,2.4285a3.8064,3.8064,0,0,0,1.0533,2.3682ZM222.44,62.8912v7.1441h.6534c1.185,0,1.6719-1.5324,1.6719-3.8585,0-1.3159-.0747-3.2857-1.6719-3.2856Z"/></g><path d="M40.1792,82.11v-.3066c1.7618-.7656,3.5235-2.6807,3.5235-4.2891a16.1928,16.1928,0,0,0-.8418-3.9834L39.6431,63.19H26.7749a43.36,43.36,0,0,0-1.1494,9.0391c0,4.6718,1.3028,7.583,3.9073,9.5742V82.11H12.9869v-.3066c2.9873-1.1485,7.5068-8.8086,11.3369-21.3711L37.3453,18.0731h1.3789L56.648,72.3055c1.1494,3.5235,3.9072,7.8135,6.0518,9.4981V82.11Zm-.9951-21.6777-5.5156-19.38-5.9746,19.38Z"/><path d="M84.9136,27.1122c0-2.1446-1.7617-5.3623-3.6767-5.9746v-.3067c11.03,0,14.4-.9189,15.6259-1.5322H97.17V75.0634a7.1292,7.1292,0,0,0,3.6767,5.9746v.3066c-3.6767,0-10.8007.3057-15.2431,1.5313h-.3067l-.3828-5.5147c-1.456,2.0684-4.1367,5.5147-9.8818,5.5147-11.337,0-13.3281-11.4893-13.3281-20.1456,0-15.7793,8.0429-23.8222,17.541-23.8222a15.3831,15.3831,0,0,1,5.6689,1.3789Zm0,15.3193A6.1281,6.1281,0,0,0,81.16,41.2059c-4.5957,0-6.1279,8.6563-6.1279,18.5371,0,9.6514.6133,17.6182,6.1279,17.6182,1.3789,0,2.6817-1.2256,3.7539-2.7578Z"/><path d="M130.7945,55.1473,119.688,83.3358h-.7666L105.0572,48.1005c-1.3789-3.37-3.9063-7.0479-5.7451-8.12v-.3056h19.84V39.98c-1.0723.46-2.5283,1.15-2.6045,2.7579a7.4862,7.4862,0,0,0,.6123,2.5283l7.5068,19.1494c2.4512-4.8262,5.9747-14.2471,5.9747-18.001,0-3.6-1.4551-5.5146-3.2168-6.4346v-.3056H140.37V39.98C134.6246,45.6493,133.8589,47.3339,130.7945,55.1473Z"/><path d="M153.6207,82.8759c-11.72,0-17.3116-10.9532-17.3116-21.4473,0-12.0264,7.4307-22.5205,17.8477-22.5205,15.55,0,16.0088,14.3242,16.0088,19.2265h-21.294c0,11.6436,3.753,15.8565,10.8008,15.8565,5.9746,0,8.5791-3.6006,10.4932-7.2774v2.7579C166.8726,78.97,163.272,82.8759,153.6207,82.8759Zm4.4423-27.0391c0-9.5752-1.2256-15.09-4.4423-15.09-4.06,0-4.7491,5.5147-4.7491,15.09Z"/><path d="M175.604,46.7216a7.13,7.13,0,0,0-3.6767-5.9747V40.44c6.74,0,10.8-.3066,15.2432-1.5322h.3066l.3828,3.5234c4.2129-2.7568,6.5108-3.5234,12.1787-3.5234a7.8138,7.8138,0,0,1,7.89,7.8135V75.829a7.1313,7.1313,0,0,0,3.6767,5.9746V82.11h-18.23v-.3066c1.7617-1.2256,2.2978-3.6768,2.2978-5.9746V46.7216c0-2.1446-1.7617-3.2178-3.7529-3.2178s-4.06,1.3789-4.06,3.2178V75.829c0,2.2978.5361,4.749,2.2979,5.9746V82.11H171.9273v-.3066c1.9912-.69,3.6767-3.83,3.6767-5.9746Z"/><path d="M228.1509,39.6747h6.2051c-.23,2.5273-1.8389,4.1357-3.9834,4.1357h-2.2217V75.369a2.4855,2.4855,0,0,0,2.5283,2.4512c1.0723,0,2.6045-1.3018,3.4473-2.91h.3057c-.6123,4.3662-4.9785,7.9659-9.7276,7.9659-4.98,0-9.039-3.37-9.039-7.5069V43.81h-4.6729V43.121l16.8526-14.7832h.3056Z"/><path d="M46.9976,138.4344a4.2457,4.2457,0,0,0,3.1406-1.915h.3057v12.18H16.5113v-.3066c6.664-7.9659,22.3662-28.2647,22.3662-39.6016,0-5.7451-3.4463-10.8008-10.11-10.8008A12.6276,12.6276,0,0,0,18.12,103.8124v-1.8389C21.95,93.701,26.5455,88.3387,35.89,88.3387c4.4433,0,16.3154,1.15,16.3154,15.167,0,13.8643-17.3877,30.2569-23.2861,34.6231v.3056Z"/><path d="M74.8023,149.9247c-10.9531,0-19.5332-15.09-19.5332-32.5547,0-17.3877,8.58-29.0313,19.5332-29.0313,11.5664,0,19.5332,11.6436,19.5332,29.0313C94.3355,134.6815,86.0621,149.9247,74.8023,149.9247ZM80.0874,117.37c0-17.9238-1.3789-27.1924-5.2851-27.1924-4.2891,0-5.2852,9.4219-5.2852,27.1924,0,14.0947.5362,30.7158,5.2852,30.7158C79.6285,148.0858,80.0874,131.4647,80.0874,117.37Z"/><path d="M125.0513,138.4344a4.2455,4.2455,0,0,0,3.1406-1.915h.3057v12.18H94.564v-.3066c6.665-7.9659,22.3672-28.2647,22.3672-39.6016,0-5.7451-3.4463-10.8008-10.1114-10.8008a12.6271,12.6271,0,0,0-10.6464,5.8223v-1.8389c3.83-8.2725,8.4258-13.6348,17.7705-13.6348,4.4434,0,16.3154,1.15,16.3154,15.167,0,13.8643-17.3877,30.2569-23.2861,34.6231v.3056Z"/><path d="M133.7837,148.6991v-.3066c1.9912-.69,3.6768-3.83,3.6768-5.9747V99.4462a6.4352,6.4352,0,0,0-3.7539-6.128v-.3066c4.5967,0,12.7158-2.375,15.3965-4.6729h.3066v54.0791a7.1315,7.1315,0,0,0,3.6768,5.9747v.3066Z"/></svg>