<svg id="Artwork" xmlns="http://www.w3.org/2000/svg" xmlns:xlink="http://www.w3.org/1999/xlink" viewBox="0 0 252.7225 48.3111"><defs><clipPath id="clip-path"><rect x="-373.0747" y="235.4228" width="1452.3307" height="882.5669" style="fill:none"/></clipPath></defs><path d="M17.6592,45.0283v-.1992a3.7375,3.7375,0,0,0,2.2881-2.7851A10.5236,10.5236,0,0,0,19.4,39.457l-2.09-6.7158H8.9541a28.1552,28.1552,0,0,0-.7461,5.87c0,3.0342.8457,4.9248,2.5361,6.2178v.1992H0v-.1992c1.94-.7461,4.875-5.7207,7.3623-13.8779L15.8184,3.4424h.8955l11.64,35.2187a15.1757,15.1757,0,0,0,3.93,6.168v.1992Zm-.6465-14.0771-3.582-12.585-3.88,12.585Z"/><path d="M46.7061,9.3125c0-1.3926-1.1436-3.4824-2.3877-3.88V5.2334c7.163,0,9.3515-.5967,10.1474-.9951h.1992V40.4521a4.6308,4.6308,0,0,0,2.3877,3.88v.1992a44.5017,44.5017,0,0,0-9.8984.9942h-.1992l-.249-3.5811a7.3845,7.3845,0,0,1-6.417,3.5811c-7.3614,0-8.6553-7.4609-8.6553-13.082,0-10.2471,5.2236-15.4707,11.3916-15.4707a9.9881,9.9881,0,0,1,3.6807.8955Zm0,9.9482a3.9783,3.9783,0,0,0-2.4375-.7959c-2.9844,0-3.98,5.6211-3.98,12.0381,0,6.2676.3984,11.4414,3.98,11.4414a3.4542,3.4542,0,0,0,2.4375-1.791Z"/><path d="M76.5,27.5186,69.2871,45.8242h-.498l-9.003-22.8818c-.8955-2.1895-2.5371-4.5762-3.7314-5.2734v-.1983H68.9385v.1983c-.6963.2988-1.6416.746-1.6914,1.791a4.85,4.85,0,0,0,.3984,1.6416l4.875,12.4355c1.5918-3.1338,3.88-9.2519,3.88-11.6894,0-2.3379-.9453-3.5811-2.09-4.1787v-.1983h8.4073v.1983C78.9873,21.3506,78.4893,22.4443,76.5,27.5186Z"/><path d="M91.3213,45.5254c-7.61,0-11.2422-7.1133-11.2422-13.9277,0-7.81,4.8252-14.625,11.5908-14.625,10.0977,0,10.3965,9.3027,10.3965,12.4863H88.2373c0,7.5605,2.4375,10.2969,7.0137,10.2969,3.88,0,5.5713-2.3379,6.8154-4.7256v1.79C99.9268,42.9893,97.5889,45.5254,91.3213,45.5254Zm2.8848-17.56c0-6.2178-.7959-9.7988-2.8848-9.7988-2.6367,0-3.084,3.581-3.084,9.7988Z"/><path d="M105.5947,22.0469a4.6308,4.6308,0,0,0-2.3877-3.88v-.1992a34.84,34.84,0,0,0,9.8985-.9951h.1992l.249,2.288c2.7354-1.79,4.2275-2.288,7.9092-2.288a5.0738,5.0738,0,0,1,5.123,5.0742V40.9492a4.631,4.631,0,0,0,2.3877,3.88v.1992H117.1348v-.1992c1.1445-.7959,1.4922-2.3877,1.4922-3.88V22.0469A2.1642,2.1642,0,0,0,116.19,19.958c-1.293,0-2.6358.8945-2.6358,2.0889V40.9492c0,1.4922.3477,3.084,1.4922,3.88v.1992H103.207v-.1992c1.293-.4473,2.3877-2.4873,2.3877-3.88Z"/><path d="M139.7158,17.4707h4.0293a2.6522,2.6522,0,0,1-2.5859,2.6855h-1.4434V40.6514a1.6144,1.6144,0,0,0,1.6416,1.5918c.6963,0,1.6914-.8457,2.2383-1.8907h.1992a6.4321,6.4321,0,0,1-6.3174,5.1729c-3.2334,0-5.8691-2.1885-5.8691-4.874V20.1562h-3.0352V19.709l10.9444-9.6006h.1982Z"/><path d="M179.5088,38.3623a2.7559,2.7559,0,0,0,2.0391-1.2432h.1992v7.9092H159.7109v-.1992c4.3272-5.1729,14.5245-18.3555,14.5245-25.7168,0-3.7314-2.2383-7.0146-6.5655-7.0146a8.2016,8.2016,0,0,0-6.915,3.7812V14.6846c2.4873-5.3721,5.4717-8.8545,11.541-8.8545,2.8848,0,10.5947.7461,10.5947,9.85,0,9.0039-11.291,19.6484-15.122,22.4844v.1982Z"/><path d="M197.5625,45.8242c-7.1133,0-12.6855-9.8-12.6855-21.1406,0-11.292,5.5722-18.8535,12.6855-18.8535,7.5107,0,12.6846,7.5615,12.6846,18.8535C210.2471,35.9248,204.874,45.8242,197.5625,45.8242Zm3.4316-21.1406c0-11.6406-.8955-17.6592-3.4316-17.6592-2.7861,0-3.4326,6.1182-3.4326,17.6592,0,9.1523.3476,19.9463,3.4326,19.9463C200.6963,44.63,200.9941,33.8359,200.9941,24.6836Z"/><path d="M230.1924,38.3623a2.7556,2.7556,0,0,0,2.039-1.2432h.1993v7.9092H210.3945v-.1992c4.3272-5.1729,14.5244-18.3555,14.5244-25.7168,0-3.7314-2.2382-7.0146-6.5654-7.0146a8.2016,8.2016,0,0,0-6.915,3.7812V14.6846C213.9258,9.3125,216.91,5.83,222.98,5.83c2.8848,0,10.5947.7461,10.5947,9.85,0,9.0039-11.291,19.6484-15.1221,22.4844v.1982Z"/><path d="M235.86,45.0283v-.1992c1.2939-.4473,2.3876-2.4873,2.3876-3.88V13.043a4.179,4.179,0,0,0-2.4375-3.9795V8.8643c2.9854,0,8.2579-1.542,9.9991-3.0342h.1992V40.9492a4.6286,4.6286,0,0,0,2.3877,3.88v.1992Z"/><g style="clip-path:url(#clip-path)"><polygon points="-12.905 40.619 -14.101 40.619 0.309 12.593 1.505 12.593 -12.905 40.619"/><polygon points="-2.812 40.619 -4.008 40.619 10.402 12.593 11.597 12.593 -2.812 40.619"/><polygon points="7.281 40.619 6.085 40.619 20.495 12.593 21.69 12.593 7.281 40.619"/><polygon points="17.373 40.619 16.178 40.619 30.587 12.593 31.783 12.593 17.373 40.619"/><polygon points="27.466 40.619 26.271 40.619 40.68 12.593 41.876 12.593 27.466 40.619"/><polygon points="37.559 40.619 36.363 40.619 50.773 12.593 51.969 12.593 37.559 40.619"/><polygon points="47.652 40.619 46.456 40.619 60.866 12.593 62.062 12.593 47.652 40.619"/><polygon points="57.745 40.619 56.549 40.619 70.959 12.593 72.154 12.593 57.745 40.619"/><polygon points="67.837 40.619 66.642 40.619 81.052 12.593 82.247 12.593 67.837 40.619"/><polygon points="77.93 40.619 76.735 40.619 91.144 12.593 92.34 12.593 77.93 40.619"/><polygon points="88.023 40.619 86.827 40.619 101.237 12.593 102.433 12.593 88.023 40.619"/><polygon points="98.116 40.619 96.92 40.619 111.33 12.593 112.526 12.593 98.116 40.619"/><polygon points="108.209 40.619 107.013 40.619 121.423 12.593 122.619 12.593 108.209 40.619"/><polygon points="118.302 40.619 117.106 40.619 131.516 12.593 132.711 12.593 118.302 40.619"/><polygon points="128.394 40.619 127.199 40.619 141.609 12.593 142.804 12.593 128.394 40.619"/><polygon points="138.487 40.619 137.292 40.619 151.701 12.593 152.897 12.593 138.487 40.619"/><polygon points="148.58 40.619 147.384 40.619 161.794 12.593 162.99 12.593 148.58 40.619"/><polygon points="158.673 40.619 157.477 40.619 171.887 12.593 173.083 12.593 158.673 40.619"/><polygon points="168.766 40.619 167.57 40.619 181.98 12.593 183.175 12.593 168.766 40.619"/><polygon points="178.859 40.619 177.663 40.619 192.073 12.593 193.268 12.593 178.859 40.619"/><polygon points="188.951 40.619 187.756 40.619 202.166 12.593 203.361 12.593 188.951 40.619"/><polygon points="199.044 40.619 197.849 40.619 212.258 12.593 213.454 12.593 199.044 40.619"/><polygon points="209.137 40.619 207.941 40.619 222.351 12.593 223.547 12.593 209.137 40.619"/><polygon points="219.23 40.619 218.034 40.619 232.444 12.593 233.64 12.593 219.23 40.619"/><polygon points="229.323 40.619 228.127 40.619 242.537 12.593 243.732 12.593 229.323 40.619"/><polygon points="239.415 40.619 238.22 40.619 252.63 12.593 253.825 12.593 239.415 40.619"/><polygon points="249.508 40.619 248.313 40.619 262.722 12.593 263.918 12.593 249.508 40.619"/><line x1="1112.7913" y1="4.7547" x2="-984.935" y2="4.7545" style="fill:none;stroke:#000;stroke-miterlimit:10;stroke-width:2.67129588584989px;stroke-dasharray:0.8904319405555725,3.3391196727752686"/></g></svg>