<?xml version="1.0" encoding="UTF-8"?>
<svg viewBox="0 0 130 130" version="1.1" xmlns="http://www.w3.org/2000/svg" xmlns:xlink="http://www.w3.org/1999/xlink">
    <title>border-monogram</title>
    <g id="Timeline" stroke="none" stroke-width="1" fill="none" fill-rule="evenodd">
        <g id="iPhone-12-Pro" transform="translate(-11.000000, -272.000000)" fill="#e4e4e4">
            <g id="border-monogram" transform="translate(11.000000, 272.000000)">
                <path d="M63.5550501,12.8233298 L70.0739088,0.201858388 C71.2013142,0.292174847 72.3383598,0.410905472 73.4576471,0.556528077 L66.2913674,12.819778 C65.3790925,12.7949156 64.4617438,12.7994822 63.5550501,12.8233298 L63.5550501,12.8233298 Z M71.749288,13.233813 C70.8365057,13.1181268 69.9196643,13.0252733 69.0226109,12.9557601 L76.8134792,1.08371235 C77.910949,1.28616329 79.0292215,1.52007277 80.1332872,1.78341121 L71.749288,13.233813 Z M58.1001738,13.255631 L63.2836001,0.020210679 C64.4049168,-0.00820348775 65.5480511,-0.0061739044 66.6825598,0.0232550541 L60.8212696,12.9679376 C59.9089947,13.0404952 58.9946903,13.1374078 58.1001738,13.255631 L58.1001738,13.255631 Z M77.1128353,14.2146092 C76.2320181,14.0055621 75.3324278,13.8163034 74.4404482,13.6544442 L83.427726,2.66019121 C84.5120038,2.97985059 85.5993259,3.33249069 86.6643231,3.70847101 L77.1128353,14.2146092 Z M52.7325674,14.2526639 L56.5003947,0.54891714 C57.6206967,0.402787139 58.7587571,0.283041722 59.884133,0.194754846 L55.4054619,13.6813362 C54.5155118,13.8487768 53.6138919,14.040065 52.7325674,14.2526639 L52.7325674,14.2526639 Z M82.3475073,15.7545555 C81.4981479,15.4546846 80.6254489,15.1730799 79.7563015,14.9173524 L89.8456155,4.92469882 C90.8933617,5.35902966 91.9421227,5.82075987 92.9599333,6.31039685 L82.3475073,15.7545555 Z M47.5009397,15.8068173 L49.8090257,1.78949996 C50.9034511,1.52514673 52.0227384,1.28819287 53.1349223,1.08219016 L50.0997562,14.9604811 C49.2270572,15.2197603 48.3533434,15.5054242 47.5009397,15.8068173 L47.5009397,15.8068173 Z M87.4020583,17.839445 C86.5872009,17.4533168 85.7500187,17.0788587 84.9067479,16.7328147 L95.9961141,7.85440238 C96.9981958,8.39934551 97.9946963,8.9732102 98.9546653,9.56432634 L87.4020583,17.839445 Z M42.4707431,17.8998251 L43.2982851,3.72014111 C44.3607454,3.3441608 45.4475601,2.9905059 46.5237198,2.66983173 L44.961487,16.7871061 C44.1293787,17.1361944 43.2921965,17.5086229 42.4707431,17.8998251 L42.4707431,17.8998251 Z M92.2115432,20.4484744 C91.4337248,19.9730445 90.6361185,19.5128365 89.8415564,19.08155 L101.80971,11.4193655 C102.737714,12.0586843 103.663181,12.7340281 104.560742,13.4240865 L92.2115432,20.4484744 Z M37.6830757,20.5108841 L37.0209407,6.32409654 C38.0407808,5.83851872 39.0859901,5.37171456 40.1230813,4.94195028 L40.0454517,19.1424375 C39.251397,19.5757536 38.4548055,20.036469 37.6830757,20.5108841 L37.6830757,20.5108841 Z M96.7206572,23.5446038 C95.9945919,22.9890054 95.2507682,22.4486288 94.5054224,21.9381886 L107.207252,15.5683413 C108.061178,16.2974691 108.91003,17.062622 109.735035,17.8450264 L96.7206572,23.5446038 Z M33.1932422,23.6131022 L31.0525927,9.57193728 C32.0115468,8.98183592 32.9994218,8.4125378 33.9893264,7.87419082 L35.4008663,22.0000909 C34.6555204,22.5166198 33.9127115,23.0595334 33.1932422,23.6131022 L33.1932422,23.6131022 Z M100.879677,27.0902859 C100.221094,26.4682186 99.5381559,25.8527475 98.8476074,25.2651831 L112.140031,20.2536344 C112.919372,21.0761231 113.68552,21.9260111 114.416152,22.7824953 L100.879677,27.0902859 Z M29.042848,27.1638583 L25.4460088,13.4251013 C26.344077,12.7350429 27.2705586,12.0637582 28.2016067,11.4229173 L31.0683215,25.3382481 C30.3798026,25.9268272 29.7004166,26.5402688 29.042848,27.1638583 L29.042848,27.1638583 Z M104.64446,31.0464512 C104.064521,30.3695852 103.448558,29.6876452 102.814329,29.0229566 L116.555787,25.4255202 C117.253946,26.3312217 117.927751,27.2597561 118.558428,28.1796648 L104.64446,31.0464512 Z M25.2785724,31.1357529 L20.2762819,17.8353859 C21.1023017,17.0529815 21.9536906,16.2898581 22.8106607,15.5607303 L27.1061665,29.1051548 C26.4851295,29.7571584 25.8711959,30.441128 25.2785724,31.1357529 L25.2785724,31.1357529 Z M107.9871,35.3811338 C107.463481,34.6271436 106.921088,33.8822866 106.3721,33.173962 L120.408347,31.0215888 C120.99336,31.9719412 121.564673,32.9618705 122.11011,33.9604255 L107.9871,35.3811338 Z M21.9496315,35.4744947 L15.5900911,22.7627068 C16.3273188,21.9052079 17.0939748,21.0563346 17.8687488,20.2394273 L23.5600657,33.2597119 C23.0090475,33.977677 22.4671623,34.7240562 21.9496315,35.4744947 L21.9496315,35.4744947 Z M110.843667,40.022791 C110.412392,39.2327756 109.95118,38.4397159 109.475255,37.6639077 L123.660166,36.9921156 C124.147761,38.0135034 124.614553,39.0587389 125.045322,40.095856 L110.843667,40.022791 Z M19.0920496,40.1354328 L11.4381747,28.1629207 C12.0729111,27.2414899 12.7457011,26.3165072 13.4408161,25.4133427 L20.4640137,37.7623425 C19.985044,38.5462691 19.5233253,39.3423731 19.0920496,40.1354328 L19.0920496,40.1354328 Z M113.203506,44.9409788 C112.853919,44.0992091 112.478456,43.2604838 112.0898,42.4491578 L126.2671,43.2670799 C126.641549,44.3219559 126.99824,45.4067682 127.318906,46.4925952 L113.203506,44.9409788 Z M16.7393139,45.0718869 L7.87177856,33.9736178 C8.40960471,32.9806442 8.98345505,31.9891927 9.57709334,31.0215888 L17.8520052,42.569918 C17.4608128,43.3934215 17.0883935,44.2346838 16.7393139,45.0718869 L16.7393139,45.0718869 Z M115.029071,50.0707507 C114.775887,49.2112221 114.489723,48.3385013 114.184278,47.4794801 L128.204289,49.7779833 C128.469651,50.8830914 128.708121,52.0044362 128.913611,53.1105591 L115.029071,50.0707507 Z M14.9233896,50.2260138 L4.93758179,40.1212257 C5.37037962,39.0770051 5.83514259,38.0307549 6.3227378,37.0129189 L15.7631087,47.624088 C15.4612158,48.4785425 15.1796181,49.3538004 14.9233896,50.2260138 L14.9233896,50.2260138 Z M116.309199,55.3725298 C116.147343,54.4937202 115.955553,53.5996887 115.742959,52.711746 L129.444334,56.46749 C129.595026,57.5994901 129.713754,58.7436677 129.800517,59.8619681 L116.309199,55.3725298 Z M13.6610203,55.534389 L2.67110125,46.5397831 C2.98973787,45.4605521 3.34084701,44.374725 3.71529578,43.3061494 L14.2221861,52.8568612 C14.0106073,53.7442965 13.820846,54.6454315 13.6610203,55.534389 L13.6610203,55.534389 Z M117.03019,60.7935469 C116.958649,59.8888601 116.861231,58.9745328 116.743011,58.0789792 L129.976579,63.2513723 C130.009051,64.3782984 130.007022,65.5245056 129.975056,66.6534614 L117.03019,60.7935469 Z M12.9582947,60.9498248 L1.09009534,53.1572395 C1.29507814,52.0480723 1.52898177,50.9267275 1.79231363,49.8282155 L13.2373554,58.2317053 C13.1211647,59.1287811 13.0267914,60.0441232 12.9582947,60.9498248 L12.9582947,60.9498248 Z M129.429112,73.5545521 L117.176824,66.3688123 C117.191538,65.9131709 117.193567,65.457022 117.193567,65.0003657 C117.193567,64.5066696 117.188494,64.0144956 117.174794,63.5248587 L129.79798,70.0514913 C129.750793,70.6557997 129.694474,71.2596008 129.630543,71.8669536 C129.570165,72.4306704 129.502683,72.9933723 129.429112,73.5545521 L129.429112,73.5545521 Z M0.205726507,59.8888601 C0.251390991,59.3058623 0.308217904,58.7208349 0.370626032,58.1342853 C0.425930795,57.5923865 0.489861072,57.0555618 0.56190948,56.5172148 L12.8197791,63.67657 C12.8106462,64.1169896 12.8030354,64.5574092 12.8030354,65.0003657 C12.8030354,65.476303 12.8106462,65.9507181 12.8233308,66.4231037 L0.205726507,59.8888601 Z M128.191097,80.2318813 L116.753159,71.8223028 C116.871887,70.9262417 116.968289,70.0103922 117.03983,69.1001241 L128.89636,76.9084386 C128.689348,78.024202 128.454429,79.1419951 128.191097,80.2318813 L128.191097,80.2318813 Z M0.0215464223,66.6864421 C-0.00838918368,65.551905 -0.00737441737,64.4056978 0.0261128707,63.2777569 L12.9659054,69.158982 C13.0379538,70.0580874 13.1338492,70.9698777 13.2525769,71.8710128 L0.0215464223,66.6864421 Z M126.257967,86.7590214 L115.765284,77.1910581 C115.975848,76.3097115 116.166624,75.4095913 116.330509,74.5175894 L127.31028,83.5228507 C126.988599,84.6056334 126.635968,85.6955197 126.257967,86.7590214 L126.257967,86.7590214 Z M0.546687986,73.4688022 C0.399546871,72.352024 0.280819213,71.2108908 0.193041928,70.0799055 L13.677764,74.570866 C13.8436783,75.4648975 14.0354691,76.3614659 14.244511,77.2377385 L0.546687986,73.4688022 Z M123.649003,93.0466705 L114.218273,82.4223091 C114.519151,81.5703915 114.803793,80.6981781 115.059514,79.8269795 L125.036189,89.9368415 C124.602884,90.9830917 124.135584,92.0303567 123.649003,93.0466705 L123.649003,93.0466705 Z M1.78318073,80.1638903 C1.51578981,79.054723 1.27681234,77.9323634 1.07385908,76.8252257 L14.9553548,79.8833004 C15.2100611,80.7423215 15.4926735,81.6130128 15.7971034,82.4715265 L1.78318073,80.1638903 Z M120.383485,99.0410449 L112.12481,87.4703903 C112.515495,86.6595718 112.889436,85.8208465 113.237501,84.978062 L122.09844,96.0834346 C121.552496,97.0840192 120.974587,98.078515 120.383485,99.0410449 L120.383485,99.0410449 Z M3.71022194,86.6747936 C3.33628056,85.6168733 2.98415665,84.5295241 2.65993882,83.4452192 L16.773816,85.0125649 C17.1259399,85.8517976 17.496837,86.6884933 17.8885368,87.5023563 L3.71022194,86.6747936 Z M116.515704,104.64168 L109.511279,92.2779659 C109.988219,91.5006354 110.449938,90.7025018 110.880199,89.9140087 L118.526463,101.888043 C117.88716,102.813533 117.212341,103.741053 116.515704,104.64168 L116.515704,104.64168 Z M6.31309752,92.9528023 C5.81789156,91.9207592 5.35109906,90.8709572 4.92591198,89.8378993 L19.1346698,89.9393785 C19.5578273,90.7197532 20.0165017,91.5107834 20.4954714,92.2916655 L6.31309752,92.9528023 Z M112.086249,109.808492 L106.409139,96.7821187 C106.960157,96.0616166 107.503564,95.3187891 108.019065,94.5693655 L114.368458,107.282168 C113.630723,108.139667 112.862545,108.990062 112.086249,109.808492 L112.086249,109.808492 Z M9.55781278,98.9223143 C8.97381477,97.9724693 8.40199396,96.9820326 7.8585866,95.9814481 L21.9831188,94.5769764 C22.5067382,95.3324888 23.0486234,96.0758237 23.5940603,96.7861779 L9.55781278,98.9223143 Z M107.141292,114.482115 L102.854412,100.935154 C103.479001,100.279598 104.094457,99.5971508 104.685558,98.9045555 L109.675164,112.208474 C108.853203,112.985297 107.999785,113.750958 107.141292,114.482115 L107.141292,114.482115 Z M13.4037771,104.524979 C12.7081548,103.61877 12.038409,102.692265 11.4062096,101.770835 L25.3201778,98.9136886 C25.9021463,99.5946138 26.5170947,100.277061 27.1498015,100.94175 L13.4037771,104.524979 Z M101.745273,118.612317 L98.8887054,104.699016 C99.5812835,104.108407 100.262192,103.492429 100.91976,102.872898 L104.499348,116.615207 C103.606861,117.300699 102.678858,117.973506 101.745273,118.612317 L101.745273,118.612317 Z M17.8149662,109.698387 C17.0351183,108.876913 16.2694771,108.023981 15.5413823,107.168004 L29.0844534,102.874928 C29.7389777,103.496995 30.4229302,104.111959 31.1150008,104.70409 L17.8149662,109.698387 Z M95.9519718,122.157999 L94.5546386,108.03007 C95.3015066,107.515063 96.0473598,106.974686 96.7673365,106.41858 L98.8922571,120.461775 C97.9307661,121.050354 96.9423837,121.621174 95.9519718,122.157999 L95.9519718,122.157999 Z M22.7441935,114.391799 C21.8872234,113.657597 21.0368492,112.889399 20.2159033,112.110547 L33.2399214,106.425684 C33.9588834,106.977731 34.7047366,107.521152 35.4531268,108.034636 L22.7441935,114.391799 Z M89.8172021,125.083644 L89.9054867,110.885186 C90.7015709,110.450348 91.4976551,109.989632 92.270907,109.516739 L92.9203574,123.70302 C91.9000099,124.18809 90.8578449,124.651342 89.8172021,125.083644 L89.8172021,125.083644 Z M28.1356469,118.544326 C27.2035841,117.90247 26.2806541,117.228141 25.3861376,116.539098 L37.7459912,109.523843 C38.5161989,109.99978 39.3138052,110.459481 40.1124262,110.894319 L28.1356469,118.544326 Z M83.410475,127.349166 L84.9899587,113.233414 C85.818008,112.890414 86.6556976,112.515956 87.4796879,112.122724 L86.6425057,126.300886 C85.5749715,126.679404 84.4851125,127.033058 83.410475,127.349166 L83.410475,127.349166 Z M33.9416323,122.113856 C32.9522352,121.574494 31.9618233,121.000122 30.994751,120.406469 L42.5448211,112.134902 C43.3713482,112.528641 44.2141117,112.904621 45.0502791,113.250665 L33.9416323,122.113856 Z M76.8007947,128.932241 L79.84966,115.05395 C80.7193147,114.797715 81.5940433,114.513574 82.4469544,114.209643 L80.1302429,128.225946 C79.0292215,128.489284 77.9089195,128.726746 76.8007947,128.932241 L76.8007947,128.932241 Z M40.0901014,125.050155 C39.0570693,124.621913 38.0128748,124.156124 36.9849165,123.668517 L47.5948056,114.228417 C48.4604013,114.53184 49.3376667,114.815474 50.1992033,115.071709 L40.0901014,125.050155 Z M70.0475249,129.810036 L74.5459839,116.328021 C75.4323823,116.163625 76.3319726,115.972844 77.2127898,115.762275 L73.4353222,129.46044 C72.3099464,129.60657 71.1698564,129.725301 70.0475249,129.810036 L70.0475249,129.810036 Z M46.5105278,127.322274 C45.4211762,126.999063 44.3308098,126.64693 43.2693642,126.271457 L52.8401326,115.773945 C53.7128317,115.983499 54.6108998,116.172251 55.5064311,116.336647 L46.5105278,127.322274 Z M63.2496054,129.973925 L69.1296688,117.035838 C70.0328108,116.964803 70.9471152,116.870935 71.8451834,116.752711 L66.6505947,129.981536 C65.5211598,130.008935 64.3770108,130.005383 63.2496054,129.973925 L63.2496054,129.973925 Z M53.1237598,128.906871 C52.0191867,128.701376 50.9014216,128.465437 49.8019223,128.202098 L58.2021578,116.76083 C59.1078367,116.877023 60.0241707,116.971906 60.923761,117.04142 L53.1237598,128.906871 Z M58.1412718,129.632447 C57.5785839,129.573082 57.0301027,129.507628 56.479592,129.436085 L63.6565267,117.180446 C64.5596687,117.202264 65.4744805,117.201249 66.3984253,117.176894 L59.8526752,129.791262 C59.2844061,129.746611 58.7146148,129.69435 58.1412718,129.632447 L58.1412718,129.632447 Z" id="Fill-11"></path>
            </g>
        </g>
    </g>
</svg>