<?xml version="1.0" encoding="UTF-8"?>
<svg width="40px" height="40px" viewBox="0 0 40 40" version="1.1" xmlns="http://www.w3.org/2000/svg" xmlns:xlink="http://www.w3.org/1999/xlink">
    <title>Group</title>
    <g id="Page-1" stroke="none" stroke-width="1" fill="none" fill-rule="evenodd">
        <g id="r_brandGuide" transform="translate(-178.000000, -313.000000)" fill="#1A1919">
            <g id="Group" transform="translate(178.000000, 312.999000)">
                <path d="M14.7616,20.6448 L23.9776,20.6448 C24.7266,20.6448 25.3696,20.7858 25.6486,22.5198 C25.6986,22.8318 25.7856,23.3938 25.8696,23.9508 L23.9616,23.9508 L23.9616,24.8818 L26.9526,24.8818 C26.8436,24.1608 26.6536,22.9058 26.5676,22.3728 C26.2716,20.5338 25.4726,19.7138 23.9776,19.7138 L13.8306,19.7138 L13.8306,24.8818 L16.8966,24.8818 L16.8966,23.9508 L14.7616,23.9508 L14.7616,20.6448 Z" id="Fill-20"></path>
                <path d="M23.9781,13.6144 L13.8301,13.6144 L13.8301,18.7824 L23.9781,18.7824 C24.9431,18.7824 26.5621,18.4464 26.5621,16.1984 C26.5621,13.9494 24.9431,13.6144 23.9781,13.6144 M23.9781,17.8514 L14.7621,17.8514 L14.7621,14.5454 L23.9781,14.5454 C25.4431,14.5454 25.6301,15.4294 25.6301,16.1984 C25.6301,16.9684 25.4431,17.8514 23.9781,17.8514" id="Fill-18"></path>
                <polygon id="Fill-23" points="12.8987 13.6144 9.8327 13.6144 9.8327 14.5454 11.9677 14.5454 11.9677 23.9514 9.8327 23.9514 9.8327 24.8814 12.8987 24.8814"></polygon>
                <polygon id="Fill-24" points="9.833 26.745 16.897 26.745 16.897 25.813 9.833 25.813"></polygon>
                <path d="M28.6953,23.9509 C28.5933,23.2729 28.4713,22.4819 28.4063,22.0759 C28.2093,20.8469 27.8133,19.9609 27.3093,19.3279 C28.0213,18.5599 28.4243,17.4899 28.4243,16.1989 C28.4243,13.4969 26.6793,11.7519 23.9783,11.7519 L9.8323,11.7519 L9.8323,12.6829 L23.9783,12.6829 C26.1463,12.6829 27.4933,14.0299 27.4933,16.1989 C27.4933,17.6389 26.8963,18.7129 25.8613,19.2749 C26.7133,19.8169 27.2583,20.8009 27.4873,22.2239 C27.5793,22.7969 27.7913,24.1939 27.8933,24.8819 L31.0253,24.8819 L31.0253,23.9509 L28.6953,23.9509 Z" id="Fill-25"></path>
                <polygon id="Fill-27" points="23.961 26.745 31.025 26.745 31.025 25.813 23.961 25.813"></polygon>
                <path d="M17.9578,39.0625 C17.7908,39.0445 17.6268,39.0255 17.4628,39.0045 L19.5998,35.3555 C19.8688,35.3615 20.1408,35.3615 20.4168,35.3545 L18.4678,39.1095 C18.2978,39.0965 18.1288,39.0805 17.9578,39.0625 L17.9578,39.0625 Z M16.4638,38.8465 C16.1348,38.7855 15.8018,38.7155 15.4748,38.6365 L17.9758,35.2305 C18.2458,35.2645 18.5188,35.2935 18.7868,35.3135 L16.4638,38.8465 Z M19.4788,39.1645 L21.2298,35.3125 C21.4988,35.2905 21.7708,35.2625 22.0378,35.2275 L20.4918,39.1665 C20.1548,39.1745 19.8148,39.1735 19.4788,39.1645 L19.4788,39.1645 Z M14.4948,38.3745 C14.1708,38.2785 13.8458,38.1735 13.5298,38.0615 L16.3798,34.9365 C16.6398,34.9985 16.9068,35.0545 17.1738,35.1035 L14.4948,38.3745 Z M21.5028,39.1155 L22.8418,35.1015 C23.1058,35.0525 23.3738,34.9955 23.6358,34.9325 L22.5118,39.0115 C22.1768,39.0545 21.8368,39.0905 21.5028,39.1155 L21.5028,39.1155 Z M12.5838,37.6985 C12.2758,37.5705 11.9648,37.4325 11.6588,37.2865 L14.8178,34.4765 C15.0758,34.5665 15.3368,34.6515 15.5928,34.7275 L12.5838,37.6985 Z M23.5138,38.8545 L24.4208,34.7225 C24.6798,34.6455 24.9408,34.5615 25.1948,34.4705 L24.5048,38.6435 C24.1768,38.7225 23.8438,38.7925 23.5138,38.8545 L23.5138,38.8545 Z M10.7528,36.8235 C10.4578,36.6635 10.1628,36.4925 9.8748,36.3155 L13.3138,33.8525 C13.5598,33.9705 13.8108,34.0825 14.0598,34.1855 L10.7528,36.8235 Z M25.4818,38.3825 L25.9518,34.1795 C26.1988,34.0775 26.4478,33.9665 26.6928,33.8495 L26.4438,38.0705 C26.1258,38.1835 25.8018,38.2885 25.4818,38.3825 L25.4818,38.3825 Z M9.0238,35.7615 C8.7468,35.5705 8.4718,35.3695 8.2058,35.1645 L11.8858,33.0755 C12.1148,33.2175 12.3518,33.3545 12.5898,33.4835 L9.0238,35.7615 Z M27.3888,37.7085 L27.4158,33.4805 C27.6528,33.3515 27.8898,33.2145 28.1198,33.0735 L28.3128,37.2975 C28.0088,37.4415 27.6988,37.5795 27.3888,37.7085 L27.3888,37.7085 Z M7.4188,34.5245 C7.1638,34.3065 6.9108,34.0775 6.6658,33.8455 L10.5438,32.1535 C10.7578,32.3175 10.9798,32.4795 11.2028,32.6325 L7.4188,34.5245 Z M29.2158,36.8375 L28.7998,32.6305 C29.0218,32.4775 29.2438,32.3165 29.4588,32.1515 L30.0908,36.3325 C29.8048,36.5075 29.5108,36.6775 29.2158,36.8375 L29.2158,36.8375 Z M5.9508,33.1275 C5.7188,32.8825 5.4908,32.6285 5.2738,32.3745 L9.3068,31.0955 C9.5018,31.2815 9.7048,31.4645 9.9108,31.6405 L5.9508,33.1275 Z M30.9408,35.7815 L30.0898,31.6395 C30.2958,31.4635 30.4988,31.2795 30.6948,31.0955 L31.7608,35.1865 C31.4948,35.3905 31.2188,35.5915 30.9408,35.7815 L30.9408,35.7815 Z M4.6378,31.5875 C4.4308,31.3175 4.2308,31.0415 4.0428,30.7675 L8.1858,29.9165 C8.3588,30.1195 8.5418,30.3225 8.7308,30.5205 L4.6378,31.5875 Z M32.5468,34.5515 L31.2708,30.5185 C31.4568,30.3235 31.6398,30.1195 31.8158,29.9135 L33.3018,33.8745 C33.0568,34.1065 32.8028,34.3345 32.5468,34.5515 L32.5468,34.5515 Z M3.4928,29.9195 C3.3188,29.6365 3.1488,29.3415 2.9868,29.0435 L7.1918,28.6255 C7.3478,28.8505 7.5098,29.0715 7.6718,29.2835 L3.4928,29.9195 Z M34.0198,33.1605 L32.3288,29.2815 C32.4928,29.0675 32.6548,28.8465 32.8088,28.6235 L34.6988,32.4085 C34.4788,32.6635 34.2508,32.9165 34.0198,33.1605 L34.0198,33.1605 Z M2.5268,28.1415 C2.3788,27.8345 2.2398,27.5225 2.1138,27.2145 L6.3438,27.2445 C6.4698,27.4775 6.6068,27.7125 6.7488,27.9445 L2.5268,28.1415 Z M35.3388,31.6215 L33.2528,27.9405 C33.3948,27.7095 33.5318,27.4715 33.6608,27.2365 L35.9368,30.8025 C35.7468,31.0775 35.5458,31.3535 35.3388,31.6215 L35.3388,31.6215 Z M1.7518,26.2725 C1.6398,25.9575 1.5358,25.6335 1.4388,25.3115 L5.6408,25.7775 C5.7458,26.0275 5.8568,26.2765 5.9728,26.5185 L1.7518,26.2725 Z M36.4898,29.9545 L34.0308,26.5095 C34.1468,26.2685 34.2588,26.0185 34.3618,25.7675 L37.0008,29.0735 C36.8378,29.3715 36.6658,29.6675 36.4898,29.9545 L36.4898,29.9545 Z M1.1778,24.3345 C1.0978,24.0035 1.0268,23.6695 0.9668,23.3405 L5.0998,24.2505 C5.1758,24.5065 5.2598,24.7655 5.3508,25.0215 L1.1778,24.3345 Z M37.4618,28.1695 L34.6538,25.0065 C34.7438,24.7525 34.8288,24.4935 34.9048,24.2335 L37.8748,27.2435 C37.7458,27.5555 37.6068,27.8675 37.4618,28.1695 L37.4618,28.1695 Z M0.8098,22.3405 C0.7658,22.0085 0.7308,21.6685 0.7048,21.3315 L4.7198,22.6685 C4.7688,22.9355 4.8258,23.2015 4.8878,23.4625 L0.8098,22.3405 Z M38.2388,26.2975 L35.1148,23.4495 C35.1778,23.1865 35.2348,22.9185 35.2828,22.6535 L38.5518,25.3345 C38.4568,25.6565 38.3518,25.9815 38.2388,26.2975 L38.2388,26.2975 Z M0.6538,20.3215 C0.6448,19.9835 0.6448,19.6425 0.6548,19.3065 L4.5078,21.0575 C4.5288,21.3255 4.5578,21.5965 4.5928,21.8655 L0.6538,20.3215 Z M38.8148,24.3545 L35.4088,21.8505 C35.4438,21.5835 35.4728,21.3115 35.4938,21.0405 L39.0248,23.3645 C38.9628,23.6975 38.8928,24.0295 38.8148,24.3545 L38.8148,24.3545 Z M0.7078,18.2975 C0.7218,18.1245 0.7388,17.9495 0.7568,17.7755 C0.7738,17.6135 0.7928,17.4535 0.8138,17.2935 L4.4638,19.4255 C4.4608,19.5565 4.4588,19.6875 4.4588,19.8195 C4.4588,19.9615 4.4608,20.1025 4.4648,20.2435 L0.7078,18.2975 Z M39.1828,22.3665 L35.5348,20.2265 C35.5398,20.0915 35.5398,19.9555 35.5398,19.8195 C35.5398,19.6725 35.5388,19.5255 35.5348,19.3805 L39.2928,21.3235 C39.2788,21.5035 39.2618,21.6835 39.2428,21.8635 C39.2248,22.0315 39.2048,22.1995 39.1828,22.3665 L39.1828,22.3665 Z M4.5048,18.6135 L0.9718,16.2935 C1.0328,15.9635 1.1018,15.6295 1.1808,15.3025 L4.5878,17.8045 C4.5538,18.0715 4.5258,18.3435 4.5048,18.6135 L4.5048,18.6135 Z M35.4918,18.5665 C35.4698,18.2975 35.4408,18.0255 35.4058,17.7585 L39.3458,19.2985 C39.3558,19.6345 39.3548,19.9755 39.3458,20.3115 L35.4918,18.5665 Z M4.7148,17.0015 L1.4418,14.3235 C1.5368,14.0015 1.6418,13.6785 1.7528,13.3605 L4.8818,16.2035 C4.8188,16.4685 4.7618,16.7365 4.7148,17.0015 L4.7148,17.0015 Z M35.2768,16.9535 C35.2288,16.6915 35.1718,16.4255 35.1078,16.1605 L39.1878,17.2785 C39.2328,17.6155 39.2678,17.9565 39.2938,18.2895 L35.2768,16.9535 Z M5.0898,15.4205 L2.1168,12.4125 C2.2458,12.1015 2.3838,11.7895 2.5298,11.4865 L5.3398,14.6455 C5.2508,14.9005 5.1668,15.1605 5.0898,15.4205 L5.0898,15.4205 Z M34.8958,15.3745 C34.8198,15.1185 34.7348,14.8585 34.6438,14.6025 L38.8188,15.2875 C38.8978,15.6165 38.9688,15.9505 39.0298,16.2795 L34.8958,15.3745 Z M5.6308,13.8865 L2.9908,10.5815 C3.1508,10.2865 3.3218,9.9915 3.4988,9.7025 L5.9618,13.1415 C5.8458,13.3865 5.7348,13.6365 5.6308,13.8865 L5.6308,13.8865 Z M34.3518,13.8475 C34.2478,13.5965 34.1358,13.3465 34.0208,13.1055 L38.2418,13.3485 C38.3528,13.6625 38.4588,13.9855 38.5548,14.3095 L34.3518,13.8475 Z M6.3318,12.4165 L4.0528,8.8515 C4.2418,8.5775 4.4418,8.3015 4.6488,8.0335 L6.7398,11.7095 C6.5968,11.9435 6.4598,12.1805 6.3318,12.4165 L6.3318,12.4165 Z M33.6498,12.3825 C33.5208,12.1475 33.3838,11.9115 33.2418,11.6805 L37.4658,11.4805 C37.6108,11.7845 37.7498,12.0955 37.8778,12.4045 L33.6498,12.3825 Z M7.1818,11.0285 L5.2888,7.2435 C5.5078,6.9885 5.7368,6.7355 5.9668,6.4925 L7.6618,10.3695 C7.4978,10.5835 7.3358,10.8055 7.1818,11.0285 L7.1818,11.0285 Z M32.7988,11.0005 C32.6428,10.7765 32.4818,10.5545 32.3178,10.3435 L36.4978,9.7025 C36.6718,9.9855 36.8418,10.2805 37.0038,10.5775 L32.7988,11.0005 Z M8.1738,9.7365 L6.6838,5.7765 C6.9298,5.5435 7.1838,5.3165 7.4388,5.0995 L8.7178,9.1325 C8.5328,9.3265 8.3498,9.5295 8.1738,9.7365 L8.1738,9.7365 Z M31.8038,9.7105 C31.6308,9.5085 31.4478,9.3055 31.2588,9.1075 L35.3498,8.0365 C35.5578,8.3065 35.7588,8.5825 35.9468,8.8565 L31.8038,9.7105 Z M9.2938,8.5545 L8.2228,4.4635 C8.4908,4.2585 8.7668,4.0585 9.0438,3.8675 L9.8968,8.0105 C9.6918,8.1865 9.4898,8.3685 9.2938,8.5545 L9.2938,8.5545 Z M30.6828,8.5325 C30.4868,8.3475 30.2838,8.1635 30.0778,7.9885 L34.0358,6.4965 C34.2678,6.7415 34.4958,6.9945 34.7128,7.2495 L30.6828,8.5325 Z M10.5298,7.4975 L9.8928,3.3165 C10.1778,3.1405 10.4718,2.9715 10.7668,2.8115 L11.1868,7.0165 C10.9648,7.1705 10.7438,7.3325 10.5298,7.4975 L10.5298,7.4975 Z M29.4448,7.4765 C29.2288,7.3115 29.0068,7.1505 28.7848,6.9985 L32.5668,5.1015 C32.8208,5.3185 33.0738,5.5465 33.3198,5.7795 L29.4448,7.4765 Z M11.8668,6.5735 L11.6698,2.3495 C11.9728,2.2055 12.2848,2.0665 12.5928,1.9385 L12.5698,6.1665 C12.3338,6.2945 12.0968,6.4325 11.8668,6.5735 L11.8668,6.5735 Z M28.1018,6.5545 C27.8708,6.4135 27.6328,6.2765 27.3968,6.1475 L30.9598,3.8665 C31.2358,4.0575 31.5118,4.2585 31.7788,4.4635 L28.1018,6.5545 Z M13.2918,5.7965 L13.5388,1.5745 C13.8548,1.4625 14.1788,1.3575 14.4988,1.2615 L14.0338,5.4645 C13.7858,5.5685 13.5368,5.6795 13.2918,5.7965 L13.2918,5.7965 Z M26.6698,5.7785 C26.4278,5.6635 26.1778,5.5515 25.9268,5.4485 L29.2288,2.8055 C29.5268,2.9675 29.8238,3.1385 30.1098,3.3145 L26.6698,5.7785 Z M14.7898,5.1725 L15.4768,0.9995 C15.8028,0.9205 16.1358,0.8505 16.4678,0.7885 L15.5638,4.9205 C15.3038,4.9985 15.0438,5.0835 14.7898,5.1725 L14.7898,5.1725 Z M25.1648,5.1575 C24.9118,5.0685 24.6528,4.9845 24.3938,4.9085 L27.3978,1.9325 C27.7098,2.0625 28.0218,2.1995 28.3248,2.3455 L25.1648,5.1575 Z M16.3478,4.7105 L17.4698,0.6305 C17.8028,0.5865 18.1418,0.5515 18.4768,0.5245 L17.1438,4.5405 C16.8778,4.5895 16.6098,4.6465 16.3478,4.7105 L16.3478,4.7105 Z M23.6068,4.6985 C23.3438,4.6365 23.0768,4.5805 22.8108,4.5325 L25.4868,1.2585 C25.8098,1.3535 26.1328,1.4585 26.4508,1.5705 L23.6068,4.6985 Z M17.9458,4.4135 L19.4888,0.4725 C19.8228,0.4645 20.1628,0.4645 20.5008,0.4735 L18.7558,4.3275 C18.4838,4.3495 18.2118,4.3785 17.9458,4.4135 L17.9458,4.4135 Z M22.0098,4.4065 C21.7378,4.3725 21.4648,4.3445 21.1978,4.3245 L23.5178,0.7895 C23.8438,0.8495 24.1768,0.9195 24.5058,0.9975 L22.0098,4.4065 Z M19.5698,4.2845 L21.5108,0.5265 C21.8468,0.5535 22.1848,0.5895 22.5178,0.6325 L20.3848,4.2835 C20.1128,4.2765 19.8398,4.2775 19.5698,4.2845 L19.5698,4.2845 Z" id="Fill-28"></path>
            </g>
        </g>
    </g>
</svg>