<?xml version="1.0" encoding="UTF-8"?>
<svg width="23px" height="17px" viewBox="0 0 23 17" version="1.1" xmlns="http://www.w3.org/2000/svg" xmlns:xlink="http://www.w3.org/1999/xlink">
    <title>Group</title>
    <g id="Page-1" stroke="none" stroke-width="1" fill="none" fill-rule="evenodd">
        <g id="r_brandGuide" transform="translate(-187.000000, -324.000000)" fill="#e4e4e4">
            <g id="Group" transform="translate(187.832300, 324.750900)">
                <path d="M14.1458,1.8625 L3.9978,1.8625 L3.9978,7.0305 L14.1458,7.0305 C15.1108,7.0305 16.7298,6.6945 16.7298,4.4465 C16.7298,2.1975 15.1108,1.8625 14.1458,1.8625 M14.1458,6.0995 L4.9298,6.0995 L4.9298,2.7935 L14.1458,2.7935 C15.6108,2.7935 15.7978,3.6775 15.7978,4.4465 C15.7978,5.2165 15.6108,6.0995 14.1458,6.0995" id="Fill-18"></path>
                <path d="M4.9293,8.8929 L14.1453,8.8929 C14.8943,8.8929 15.5373,9.0339 15.8163,10.7679 C15.8663,11.0799 15.9533,11.6419 16.0373,12.1989 L14.1293,12.1989 L14.1293,13.1299 L17.1203,13.1299 C17.0113,12.4089 16.8213,11.1539 16.7353,10.6209 C16.4393,8.7819 15.6403,7.9619 14.1453,7.9619 L3.9983,7.9619 L3.9983,13.1299 L7.0643,13.1299 L7.0643,12.1989 L4.9293,12.1989 L4.9293,8.8929 Z" id="Fill-20"></path>
                <polygon id="Fill-23" points="3.0664 1.8625 0.0004 1.8625 0.0004 2.7935 2.1354 2.7935 2.1354 12.1995 0.0004 12.1995 0.0004 13.1295 3.0664 13.1295"></polygon>
                <polygon id="Fill-24" points="0.0007 14.9931 7.0647 14.9931 7.0647 14.0611 0.0007 14.0611"></polygon>
                <path d="M18.863,12.199 C18.761,11.521 18.639,10.73 18.574,10.324 C18.377,9.095 17.981,8.209 17.477,7.576 C18.189,6.808 18.592,5.738 18.592,4.447 C18.592,1.745 16.847,0 14.146,0 L-1.42108547e-14,0 L-1.42108547e-14,0.931 L14.146,0.931 C16.314,0.931 17.661,2.278 17.661,4.447 C17.661,5.887 17.064,6.961 16.029,7.523 C16.881,8.065 17.426,9.049 17.655,10.472 C17.747,11.045 17.959,12.442 18.061,13.13 L21.193,13.13 L21.193,12.199 L18.863,12.199 Z" id="Fill-25"></path>
                <polygon id="Fill-27" points="14.1287 14.9931 21.1927 14.9931 21.1927 14.0611 14.1287 14.0611"></polygon>
            </g>
        </g>
    </g>
</svg>