<?xml version="1.0" encoding="UTF-8"?>
<svg viewBox="0 0 314 71" version="1.1" xmlns="http://www.w3.org/2000/svg" xmlns:xlink="http://www.w3.org/1999/xlink">
    <title>Group 22</title>
    <g id="Page-1" stroke="none" stroke-width="1" fill="none" fill-rule="evenodd">
        <g id="r_brandGuide" transform="translate(-52.000000, -136.000000)" fill="#1A1919">
            <g id="Group-22" transform="translate(52.000000, 136.000000)">
                <path d="M52.1206,69.4568 L36.5916,69.4568 C34.7266,68.1078 33.4746,66.1248 33.1526,61.3488 C32.8826,57.3878 32.6046,49.5058 32.3136,45.5468 C31.8756,39.4798 31.0196,33.3298 23.0776,33.3298 L21.2246,33.3298 L21.2246,61.0728 C21.2246,65.0588 23.9306,68.0258 26.3056,69.1288 L26.3056,69.4568 L0.8916,69.4568 L0.8916,69.1288 C3.2586,68.0258 5.9766,65.0588 5.9766,61.0728 L5.9766,8.3888 C5.9766,4.4018 3.2586,1.4408 0.8916,0.3398 L0.8916,-0.0002 L30.1986,-0.0002 C41.0896,-0.0002 46.2096,6.4948 46.2096,16.0908 C46.2096,23.6978 40.2946,30.1538 33.2686,32.1008 L33.2686,32.2708 C40.1256,32.6988 46.1916,36.7478 46.9816,49.0458 C47.1746,52.0958 47.5006,56.1658 47.7106,59.2128 C48.0276,63.7698 50.2036,67.1398 52.1206,69.1288 L52.1206,69.4568 Z M21.2246,1.7058 L21.2246,31.6168 L23.9606,31.6168 C28.9216,31.6168 30.9596,25.2018 30.9596,15.4628 C30.9596,9.9528 30.6476,1.7058 23.9606,1.7058 L21.2246,1.7058 Z" id="Fill-2"></path>
                <path d="M73.5352,70.3134 C60.5732,70.3134 53.3782,58.1894 53.3782,46.5924 C53.3782,33.2914 63.2122,21.6824 74.7312,21.6824 C91.9322,21.6824 90.8622,35.8884 90.3772,42.9474 L67.2112,42.9474 C67.2112,55.8184 72.5772,60.4884 79.9002,60.4884 C85.9702,60.4884 89.9442,57.6014 92.0122,53.7484 L92.3542,53.7484 C90.8792,61.7124 86.3042,70.3134 73.5352,70.3134 L73.5352,70.3134 Z M77.0332,41.2274 C77.8782,39.4824 78.6292,34.7934 78.6292,30.7764 C78.6292,26.1724 77.1312,23.1314 74.5882,23.1314 C70.5162,23.1314 67.2112,30.6384 67.2112,41.2274 L77.0332,41.2274 Z" id="Fill-4"></path>
                <path d="M260.5061,70.3134 C247.5531,70.3134 240.3491,58.1874 240.3491,46.5924 C240.3491,33.2914 250.1911,21.6824 261.7101,21.6824 C278.9061,21.6824 277.8371,35.8884 277.3521,42.9474 L254.1841,42.9474 C254.1841,55.8184 259.5581,60.4874 266.8711,60.4874 C272.9491,60.4874 276.9261,57.6014 278.9921,53.7484 L279.3291,53.7484 C277.8591,61.7104 273.2841,70.3114 260.5061,70.3134 L260.5061,70.3134 Z M264.0121,41.2264 C264.8561,39.4834 265.6091,34.7934 265.6091,30.7764 C265.6091,26.1724 264.1031,23.1314 261.5671,23.1314 C257.4921,23.1314 254.1841,30.6394 254.1841,41.2264 L264.0121,41.2264 Z" id="Fill-6"></path>
                <path d="M125.0628,39.6408 L112.7738,70.8148 L111.9298,70.8148 L96.5928,31.8488 C94.5778,26.7378 92.2808,24.0588 90.2448,22.8688 L90.2448,22.5348 L112.1838,22.5348 L112.1838,22.8678 C110.9968,23.3778 109.3848,24.1398 109.3028,25.9218 C109.3028,26.6848 109.5568,27.6178 109.9828,28.7108 L118.6328,50.8318 C121.3388,45.4988 125.5928,34.8098 125.5928,30.6598 C125.5928,26.6698 123.2778,23.8868 121.3338,22.8678 L121.3338,22.5348 L135.6478,22.5348 L135.6478,22.8678 C129.9738,27.5238 128.4498,31.0048 125.0628,39.6408" id="Fill-8"></path>
                <path d="M233.3007,39.6408 L221.0187,70.8148 L220.1667,70.8148 L204.8377,31.8488 C202.8137,26.7378 200.5187,24.0588 198.4817,22.8678 L198.4817,22.5328 L220.4257,22.5328 L220.4257,22.8678 C219.2337,23.3778 217.6287,24.1398 217.5387,25.9218 C217.5387,26.6848 217.7997,27.6178 218.2187,28.7108 L226.8717,50.8318 C229.5787,45.4978 233.8307,34.8098 233.8307,30.6598 C233.8307,26.6698 231.5227,23.8868 229.5697,22.8678 L229.5697,22.5328 L243.8857,22.5328 L243.8857,22.8678 C238.2107,27.5238 236.6867,31.0048 233.3007,39.6408" id="Fill-10"></path>
                <path d="M154.1773,70.3134 C142.8213,70.3134 133.5863,61.6704 133.5863,45.9134 C133.5863,30.2424 142.8213,21.6824 154.1773,21.6824 C165.5253,21.6824 174.7573,30.2424 174.7573,45.9114 C174.7573,61.6704 165.5253,70.3134 154.1773,70.3134 M154.1773,23.1314 C149.3463,23.1314 148.5033,30.9174 148.5033,45.9134 C148.5033,60.9094 149.3463,68.8684 154.1773,68.8684 C159.0883,68.8684 159.8513,60.9084 159.8513,45.9114 C159.8513,30.9174 159.0883,23.1314 154.1773,23.1314" id="Fill-12"></path>
                <path d="M195.9911,62.5164 C195.9911,65.9634 197.8561,68.1894 200.0531,69.1284 L200.0531,69.4564 L178.3671,69.4564 L178.3671,69.1284 C180.5721,68.3534 182.4381,66.0544 182.4381,62.5164 L182.4381,9.3844 C182.4381,5.2634 180.4891,2.7054 178.3671,2.0344 L178.3671,1.6924 C190.5671,1.6924 194.2951,0.6804 195.6491,0.0004 L195.9911,0.0004 L195.9911,62.5164 Z" id="Fill-14"></path>
                <path d="M304.5472,24.9443 C301.5792,24.9443 299.1202,28.6703 299.1202,33.2503 L299.1202,62.5163 C299.1202,66.0483 300.9822,68.1893 303.1882,69.1283 L303.1882,69.4563 L281.5082,69.4563 L281.5082,69.1283 C283.7052,68.3553 285.5672,65.9213 285.5672,62.5163 L285.5672,29.4753 C285.5672,26.1483 283.6232,23.5483 281.5082,22.8693 L281.5082,22.5333 C293.7002,22.5333 297.4292,21.5153 298.7892,20.8393 L299.1202,20.8393 L299.1202,27.6173 C301.3232,23.8883 303.5272,20.8393 308.3572,20.8393 C310.2232,20.8393 312.0852,21.6823 313.1082,22.5333 L309.3782,32.1893 L304.5472,24.9443 Z" id="Fill-16"></path>
            </g>
        </g>
    </g>
</svg>