<?xml version="1.0" encoding="UTF-8"?>
<svg width="60px" height="55px" viewBox="0 0 60 55" version="1.1" xmlns="http://www.w3.org/2000/svg" xmlns:xlink="http://www.w3.org/1999/xlink">
    <title>11</title>
    <defs>
        <path d="M162.144,326 L162.144,325.728 C160.376,324.98 158.88,322.464 158.88,320.424 L158.88,272.416 L158.608,272.416 C156.228,274.456 149.02,276.564 144.94,276.564 L144.94,276.836 C146.708,277.72 148.272,279.352 148.272,282.276 L148.272,320.424 C148.272,322.328 146.776,325.116 145.008,325.728 L145.008,326 L162.144,326 Z M202.264,326 L202.264,325.728 C200.496,324.98 199,322.464 199,320.424 L199,272.416 L198.728,272.416 C196.348,274.456 189.14,276.564 185.06,276.564 L185.06,276.836 C186.828,277.72 188.392,279.352 188.392,282.276 L188.392,320.424 C188.392,322.328 186.896,325.116 185.128,325.728 L185.128,326 L202.264,326 Z" id="path-1"></path>
        <filter x="-5.2%" y="-3.7%" width="107.0%" height="105.6%" filterUnits="objectBoundingBox" id="filter-2">
            <feOffset dx="-2" dy="-1" in="SourceAlpha" result="shadowOffsetOuter1"></feOffset>
            <feColorMatrix values="0 0 0 0 1   0 0 0 0 1   0 0 0 0 1  0 0 0 1 0" type="matrix" in="shadowOffsetOuter1"></feColorMatrix>
        </filter>
    </defs>
    <g id="Timeline" stroke="none" stroke-width="1" fill="none" fill-rule="evenodd">
        <g id="iPhone-12-Pro-Max" transform="translate(-143.000000, -271.000000)" fill-rule="nonzero">
            <g id="11">
                <use fill="black" fill-opacity="1" filter="url(#filter-2)" xlink:href="#path-1"></use>
                <use fill="#000000" xlink:href="#path-1"></use>
            </g>
        </g>
    </g>
</svg>