<?xml version="1.0" encoding="UTF-8"?>
<svg width="68px" height="57px" viewBox="0 0 68 57" version="1.1" xmlns="http://www.w3.org/2000/svg" xmlns:xlink="http://www.w3.org/1999/xlink">
    <title>18</title>
    <defs>
        <path d="M269.144,211 L269.144,210.728 C267.376,209.98 265.88,207.464 265.88,205.424 L265.88,157.416 L265.608,157.416 C263.228,159.456 256.02,161.564 251.94,161.564 L251.94,161.836 C253.708,162.72 255.272,164.352 255.272,167.276 L255.272,205.424 C255.272,207.328 253.776,210.116 252.008,210.728 L252.008,211 L269.144,211 Z M300.016,212.088 C309.944,212.088 317.968,204.404 317.968,194.952 C317.968,184.48 312.324,180.604 306.136,177 C310.556,174.416 314.16,170.948 314.16,166.596 C314.16,160.068 308.72,157.416 301.648,157.416 C291.856,157.416 286.008,162.924 286.008,171.492 C286.008,176.864 287.64,180.468 293.488,184.82 C291.856,185.432 283.152,189.716 283.152,198.216 C283.152,210.116 294.236,212.088 300.016,212.088 Z M304.096,175.776 C301.24,174.144 295.528,171.9 295.528,166.596 C295.528,161.7 299.2,159.048 302.26,159.048 C306.272,159.048 308.176,162.448 308.176,166.596 C308.176,169.656 306.068,174.144 304.096,175.776 Z M299.812,210.456 C294.372,210.456 291.856,204.608 291.856,198.216 C291.856,193.116 293.148,189.648 295.936,186.384 C295.936,186.384 296.124006,186.467232 296.454898,186.629936 L296.696165,186.750137 C299.484911,188.156993 308.992,193.54032 308.992,201.548 C308.992,206.58 304.436,210.456 299.812,210.456 Z" id="path-1"></path>
        <filter x="-4.5%" y="-3.7%" width="106.1%" height="105.5%" filterUnits="objectBoundingBox" id="filter-2">
            <feOffset dx="-2" dy="-1" in="SourceAlpha" result="shadowOffsetOuter1"></feOffset>
            <feColorMatrix values="0 0 0 0 1   0 0 0 0 1   0 0 0 0 1  0 0 0 1 0" type="matrix" in="shadowOffsetOuter1"></feColorMatrix>
        </filter>
    </defs>
    <g id="Timeline" stroke="none" stroke-width="1" fill="none" fill-rule="evenodd">
        <g id="iPhone-12-Pro-Max" transform="translate(-250.000000, -156.000000)" fill-rule="nonzero">
            <g id="18">
                <use fill="black" fill-opacity="1" filter="url(#filter-2)" xlink:href="#path-1"></use>
                <use fill="#000000" xlink:href="#path-1"></use>
            </g>
        </g>
    </g>
</svg>