<?xml version="1.0" encoding="UTF-8"?>
<svg width="68px" height="57px" viewBox="0 0 68 57" version="1.1" xmlns="http://www.w3.org/2000/svg" xmlns:xlink="http://www.w3.org/1999/xlink">
    <title>19</title>
    <defs>
        <path d="M269.144,326 L269.144,325.728 C267.376,324.98 265.88,322.464 265.88,320.424 L265.88,272.416 L265.608,272.416 C263.228,274.456 256.02,276.564 251.94,276.564 L251.94,276.836 C253.708,277.72 255.272,279.352 255.272,282.276 L255.272,320.424 C255.272,322.328 253.776,325.116 252.008,325.728 L252.008,326 L269.144,326 Z M292.944,327.088 C308.04,327.088 317.832,308.388 317.832,296.828 C317.832,286.764 313.82,272.416 300.492,272.416 C288.456,272.416 283.288,283.636 283.288,292.408 C283.288,305.866333 291.345476,307.871064 296.257928,307.911369 L296.412,307.912 C298.248,307.912 302.736,307.708 304.912,304.512 L305.184,304.512 C304.3,314.508 298.316,324.572 292.944,326.68 L292.944,327.088 Z M300.492,304.24 C296.611613,304.24 295.956609,296.999344 295.936489,291.066678 L295.936489,290.183343 C295.938839,289.085378 295.948668,287.927412 295.980727,286.75648 L296.000507,286.116787 C296.207339,280.139591 297.059437,274.048 300.492,274.048 C304.572,274.048 305.184,283.976 305.184,290.776 C305.184,296.828 304.096,304.24 300.492,304.24 Z" id="path-1"></path>
        <filter x="-4.6%" y="-3.7%" width="106.1%" height="105.5%" filterUnits="objectBoundingBox" id="filter-2">
            <feOffset dx="-2" dy="-1" in="SourceAlpha" result="shadowOffsetOuter1"></feOffset>
            <feColorMatrix values="0 0 0 0 1   0 0 0 0 1   0 0 0 0 1  0 0 0 1 0" type="matrix" in="shadowOffsetOuter1"></feColorMatrix>
        </filter>
    </defs>
    <g id="Timeline" stroke="none" stroke-width="1" fill="none" fill-rule="evenodd">
        <g id="iPhone-12-Pro-Max" transform="translate(-250.000000, -271.000000)" fill-rule="nonzero">
            <g id="19">
                <use fill="black" fill-opacity="1" filter="url(#filter-2)" xlink:href="#path-1"></use>
                <use fill="#000000" xlink:href="#path-1"></use>
            </g>
        </g>
    </g>
</svg>