<?xml version="1.0" encoding="UTF-8"?>
<svg width="76px" height="57px" viewBox="0 0 76 57" version="1.1" xmlns="http://www.w3.org/2000/svg" xmlns:xlink="http://www.w3.org/1999/xlink">
    <title>20</title>
    <defs>
        <path d="M274.312,441 L274.312,430.188 L274.04,430.188 C273.496,431.14 272.136,431.888 271.252,431.888 L255.204,431.888 L255.204,431.616 C260.44,427.74 275.876,413.188 275.876,400.88 C275.876,388.436 265.336,387.416 261.392,387.416 C253.096,387.416 249.016,392.176 245.616,399.52 L245.616,401.152 C247.52,398.432 250.512,395.984 255.068,395.984 C260.984,395.984 264.044,400.472 264.044,405.572 C264.044,415.636 250.104,433.656 244.188,440.728 L244.188,441 L274.312,441 Z M300.56,442.088 C310.556,442.088 317.9,428.556 317.9,413.188 C317.9,397.752 310.828,387.416 300.56,387.416 C290.836,387.416 283.22,397.752 283.22,413.188 C283.22,428.692 290.836,442.088 300.56,442.088 Z M300.56,440.456 C297.354083,440.456 296.31076,431.923586 295.994854,422.333632 L295.970498,421.543189 C295.966702,421.411103 295.963035,421.278856 295.959493,421.146469 L295.939719,420.350611 C295.933609,420.084865 295.927972,419.818708 295.922778,419.552296 L295.908493,418.752447 C295.893308,417.818752 295.883185,416.883807 295.876858,415.954202 L295.872335,415.15886 C295.871726,415.026572 295.871188,414.894432 295.870715,414.762458 L295.868649,413.972768 L295.868649,413.972768 L295.868,413.188 C295.868,397.412 296.752,389.048 300.56,389.048 C304.028,389.048 305.252,397.276 305.252,413.188 C305.252,413.448667 305.251823,413.710307 305.251437,413.972768 L305.249624,414.762458 C305.249207,414.894432 305.24873,415.026572 305.24819,415.15886 L305.244148,415.954202 C305.241712,416.352604 305.238631,416.751987 305.234799,417.151832 L305.226102,417.951984 C305.222848,418.218805 305.219229,418.485677 305.215213,418.752447 L305.201944,419.552296 C305.008333,430.208778 304.13,440.456 300.56,440.456 Z" id="path-1"></path>
        <filter x="-4.1%" y="-3.7%" width="105.4%" height="105.5%" filterUnits="objectBoundingBox" id="filter-2">
            <feOffset dx="-2" dy="-1" in="SourceAlpha" result="shadowOffsetOuter1"></feOffset>
            <feColorMatrix values="0 0 0 0 1   0 0 0 0 1   0 0 0 0 1  0 0 0 1 0" type="matrix" in="shadowOffsetOuter1"></feColorMatrix>
        </filter>
    </defs>
    <g id="Timeline" stroke="none" stroke-width="1" fill="none" fill-rule="evenodd">
        <g id="iPhone-12-Pro-Max" transform="translate(-242.000000, -386.000000)" fill-rule="nonzero">
            <g id="20">
                <use fill="black" fill-opacity="1" filter="url(#filter-2)" xlink:href="#path-1"></use>
                <use fill="#000000" xlink:href="#path-1"></use>
            </g>
        </g>
    </g>
</svg>