<?xml version="1.0" encoding="UTF-8"?>
<svg width="68px" height="55px" viewBox="0 0 68 55" version="1.1" xmlns="http://www.w3.org/2000/svg" xmlns:xlink="http://www.w3.org/1999/xlink">
    <title>21</title>
    <defs>
        <path d="M274.312,556 L274.312,545.188 L274.04,545.188 C273.496,546.14 272.136,546.888 271.252,546.888 L255.204,546.888 L255.204,546.616 C260.44,542.74 275.876,528.188 275.876,515.88 C275.876,503.436 265.336,502.416 261.392,502.416 C253.096,502.416 249.016,507.176 245.616,514.52 L245.616,516.152 C247.52,513.432 250.512,510.984 255.068,510.984 C260.984,510.984 264.044,515.472 264.044,520.572 C264.044,530.636 250.104,548.656 244.188,555.728 L244.188,556 L274.312,556 Z M309.264,556 L309.264,555.728 C307.496,554.98 306,552.464 306,550.424 L306,502.416 L305.728,502.416 C303.348,504.456 296.14,506.564 292.06,506.564 L292.06,506.836 C293.828,507.72 295.392,509.352 295.392,512.276 L295.392,550.424 C295.392,552.328 293.896,555.116 292.128,555.728 L292.128,556 L309.264,556 Z" id="path-1"></path>
        <filter x="-4.6%" y="-3.7%" width="106.1%" height="105.6%" filterUnits="objectBoundingBox" id="filter-2">
            <feOffset dx="-2" dy="-1" in="SourceAlpha" result="shadowOffsetOuter1"></feOffset>
            <feColorMatrix values="0 0 0 0 1   0 0 0 0 1   0 0 0 0 1  0 0 0 1 0" type="matrix" in="shadowOffsetOuter1"></feColorMatrix>
        </filter>
    </defs>
    <g id="Timeline" stroke="none" stroke-width="1" fill="none" fill-rule="evenodd">
        <g id="iPhone-12-Pro-Max" transform="translate(-242.000000, -501.000000)" fill-rule="nonzero">
            <g id="21">
                <use fill="black" fill-opacity="1" filter="url(#filter-2)" xlink:href="#path-1"></use>
                <use fill="#000000" xlink:href="#path-1"></use>
            </g>
        </g>
    </g>
</svg>