<?xml version="1.0" encoding="UTF-8"?>
<svg width="74px" height="55px" viewBox="0 0 74 55" version="1.1" xmlns="http://www.w3.org/2000/svg" xmlns:xlink="http://www.w3.org/1999/xlink">
    <title>22</title>
    <defs>
        <path d="M274.312,671 L274.312,660.188 L274.04,660.188 C273.496,661.14 272.136,661.888 271.252,661.888 L255.204,661.888 L255.204,661.616 C260.44,657.74 275.876,643.188 275.876,630.88 C275.876,618.436 265.336,617.416 261.392,617.416 C253.096,617.416 249.016,622.176 245.616,629.52 L245.616,631.152 C247.52,628.432 250.512,625.984 255.068,625.984 C260.984,625.984 264.044,630.472 264.044,635.572 C264.044,645.636 250.104,663.656 244.188,670.728 L244.188,671 L274.312,671 Z M314.432,671 L314.432,660.188 L314.16,660.188 C313.616,661.14 312.256,661.888 311.372,661.888 L295.324,661.888 L295.324,661.616 C300.56,657.74 315.996,643.188 315.996,630.88 C315.996,618.436 305.456,617.416 301.512,617.416 C293.216,617.416 289.136,622.176 285.736,629.52 L285.736,631.152 C287.64,628.432 290.632,625.984 295.188,625.984 C301.104,625.984 304.164,630.472 304.164,635.572 C304.164,645.636 290.224,663.656 284.308,670.728 L284.308,671 L314.432,671 Z" id="path-1"></path>
        <filter x="-4.2%" y="-3.7%" width="105.6%" height="105.6%" filterUnits="objectBoundingBox" id="filter-2">
            <feOffset dx="-2" dy="-1" in="SourceAlpha" result="shadowOffsetOuter1"></feOffset>
            <feColorMatrix values="0 0 0 0 1   0 0 0 0 1   0 0 0 0 1  0 0 0 1 0" type="matrix" in="shadowOffsetOuter1"></feColorMatrix>
        </filter>
    </defs>
    <g id="Timeline" stroke="none" stroke-width="1" fill="none" fill-rule="evenodd">
        <g id="iPhone-12-Pro-Max" transform="translate(-242.000000, -616.000000)" fill-rule="nonzero">
            <g id="22">
                <use fill="black" fill-opacity="1" filter="url(#filter-2)" xlink:href="#path-1"></use>
                <use fill="#000000" xlink:href="#path-1"></use>
            </g>
        </g>
    </g>
</svg>