<?xml version="1.0" encoding="UTF-8"?>
<svg width="77px" height="55px" viewBox="0 0 77 55" version="1.1" xmlns="http://www.w3.org/2000/svg" xmlns:xlink="http://www.w3.org/1999/xlink">
    <title>24</title>
    <defs>
        <path d="M274.312,901 L274.312,890.188 L274.04,890.188 C273.496,891.14 272.136,891.888 271.252,891.888 L255.204,891.888 L255.204,891.616 C260.44,887.74 275.876,873.188 275.876,860.88 C275.876,848.436 265.336,847.416 261.392,847.416 C253.096,847.416 249.016,852.176 245.616,859.52 L245.616,861.152 C247.52,858.432 250.512,855.984 255.068,855.984 C260.984,855.984 264.044,860.472 264.044,865.572 C264.044,875.636 250.104,893.656 244.188,900.728 L244.188,901 L274.312,901 Z M315.588,901 L315.588,900.728 C313.82,899.98 312.324,897.464 312.324,895.424 L312.324,887.4 L318.444,887.4 L318.444,883.048 L312.324,883.048 L312.324,847.416 L311.44,847.416 L281.316,887.128 L281.316,887.4 L301.716,887.4 L301.716,895.424 C301.716,897.328 300.22,900.116 298.452,900.728 L298.452,901 L315.588,901 Z M301.716,883.048 L287.096,883.048 L301.716,863.328 L301.716,883.048 Z" id="path-1"></path>
        <filter x="-4.0%" y="-3.7%" width="105.4%" height="105.6%" filterUnits="objectBoundingBox" id="filter-2">
            <feOffset dx="-2" dy="-1" in="SourceAlpha" result="shadowOffsetOuter1"></feOffset>
            <feColorMatrix values="0 0 0 0 1   0 0 0 0 1   0 0 0 0 1  0 0 0 1 0" type="matrix" in="shadowOffsetOuter1"></feColorMatrix>
        </filter>
    </defs>
    <g id="Timeline" stroke="none" stroke-width="1" fill="none" fill-rule="evenodd">
        <g id="iPhone-12-Pro-Max" transform="translate(-242.000000, -846.000000)" fill-rule="nonzero">
            <g id="24">
                <use fill="black" fill-opacity="1" filter="url(#filter-2)" xlink:href="#path-1"></use>
                <use fill="#000000" xlink:href="#path-1"></use>
            </g>
        </g>
    </g>
</svg>